<svg width="110" height="110" viewBox="0 0 110 110" fill="none" xmlns="http://www.w3.org/2000/svg">
<path d="M100.077 82.6791C99.5977 82.7043 99.1446 82.9065 98.8057 83.2468L84.9708 97.0893C84.7371 97.3228 84.5671 97.6122 84.4767 97.9299C84.3863 98.2477 84.3787 98.5833 84.4545 98.9048C84.5303 99.2263 84.6872 99.5231 84.91 99.767C85.1328 100.011 85.4142 100.194 85.7276 100.298L106.488 107.216C106.829 107.33 107.196 107.347 107.546 107.264C107.897 107.182 108.218 107.003 108.472 106.748C108.727 106.494 108.906 106.173 108.988 105.822C109.071 105.472 109.054 105.105 108.94 104.764L102.015 84.0036C101.881 83.6013 101.619 83.2539 101.269 83.0147C100.919 82.7754 100.501 82.6576 100.077 82.6791ZM99.3355 88.1965L104.035 102.311L89.9281 97.6115L99.3355 88.1965ZM17.1356 2.68915C14.7583 2.68921 12.3867 3.59313 10.5814 5.39862L7.11507 8.85736C3.50473 12.4682 3.50435 18.3628 7.11507 21.9733L12.307 27.1652C12.6703 27.5285 13.163 27.7326 13.6768 27.7326C14.1907 27.7326 14.6836 27.5285 15.0469 27.1652L28.8892 13.3303C29.2525 12.9669 29.4564 12.4742 29.4564 11.9604C29.4564 11.4466 29.2525 10.9539 28.8892 10.5905L23.6973 5.39862C21.892 3.59335 19.5129 2.68908 17.1356 2.68915ZM17.1356 6.53387C18.5104 6.53384 19.8875 7.06839 20.9574 8.13837L24.7796 11.9604L13.6766 23.0556L9.85482 19.2336C7.71504 17.0936 7.71466 13.7375 9.85482 11.5971L13.3209 8.13837C14.3912 7.06822 15.7607 6.53391 17.1356 6.53387Z" fill="white"/>
<path fill-rule="evenodd" clip-rule="evenodd" d="M8.60572 98.7846L0.961914 106.512L3.7168 109.237L11.3608 101.517L8.60572 98.7846Z" fill="white"/>
<path d="M27.489 10.0229C26.9857 10.031 26.5053 10.2345 26.1494 10.5906L12.3069 24.4255C11.9437 24.7889 11.7395 25.2816 11.7395 25.7954C11.7395 26.3092 11.9437 26.8019 12.3069 27.1653L41.6873 56.5456C41.8658 56.7316 42.0795 56.8801 42.3161 56.9823C42.5528 57.0846 42.8076 57.1386 43.0654 57.1413C43.3232 57.1439 43.5788 57.0951 43.8175 56.9976C44.0562 56.9002 44.2729 56.7561 44.4551 56.5738C44.6374 56.3916 44.7815 56.1747 44.879 55.9361C44.9764 55.6974 45.0252 55.4417 45.0225 55.1839C45.0199 54.9262 44.9659 54.6715 44.8636 54.4349C44.7613 54.1982 44.613 53.9844 44.427 53.8059L16.4167 25.7954L27.5193 14.7002L56.8088 43.9897C56.9874 44.1757 57.2013 44.3242 57.438 44.4264C57.6746 44.5287 57.9292 44.5828 58.187 44.5854C58.4448 44.588 58.7004 44.5392 58.9391 44.4417C59.1778 44.3443 59.3944 44.2002 59.5767 44.0179C59.759 43.8356 59.9031 43.6188 60.0006 43.3802C60.098 43.1415 60.147 42.8858 60.1444 42.628C60.1417 42.3703 60.0875 42.1156 59.9852 41.879C59.8829 41.6424 59.7345 41.4285 59.5486 41.25L28.8892 10.5906C28.7057 10.407 28.4871 10.2622 28.2466 10.1647C28.0061 10.0672 27.7485 10.019 27.489 10.0229ZM68.8198 51.3235C68.4355 51.3251 68.0603 51.4409 67.742 51.6563C67.4237 51.8717 67.1767 52.1769 67.0323 52.533C66.8879 52.8892 66.8526 53.2803 66.931 53.6565C67.0095 54.0327 67.198 54.3772 67.4727 54.646L97.4358 84.6167L86.3406 95.7195L56.2866 65.6655C56.1081 65.4795 55.8944 65.3311 55.6577 65.2288C55.4211 65.1265 55.1662 65.0725 54.9085 65.0699C54.6507 65.0672 54.395 65.1161 54.1564 65.2135C53.9177 65.3109 53.701 65.455 53.5187 65.6373C53.3364 65.8196 53.1923 66.0364 53.0949 66.2751C52.9975 66.5137 52.9487 66.7694 52.9513 67.0272C52.954 67.285 53.008 67.5396 53.1103 67.7763C53.2126 68.0129 53.3609 68.2267 53.5469 68.4053L84.9707 99.8291C85.3341 100.192 85.8268 100.396 86.3406 100.396C86.8543 100.396 87.3471 100.192 87.7104 99.8291L101.545 85.9866C101.909 85.6232 102.113 85.1305 102.113 84.6167C102.113 84.1029 101.909 83.6102 101.545 83.2468L70.2124 51.9062C70.0311 51.7209 69.8144 51.5738 69.5752 51.4737C69.336 51.3736 69.0791 51.3225 68.8198 51.3235Z" fill="#F5B241"/>
<path fill-rule="evenodd" clip-rule="evenodd" d="M21.0938 16.2668L18.3391 18.999L48.741 49.5978L51.4883 46.8657L21.0938 16.2668ZM62.2883 57.7414L59.541 60.4736L91.0027 92.1396L93.75 89.4074L62.2883 57.7414Z" fill="#F5B241"/>
<path d="M96.2778 0.759222C95.7719 0.76529 95.2884 0.969014 94.9307 1.32685L87.8164 8.44111L56.9375 39.32L11.0959 85.154C10.7327 85.5174 10.5286 86.0101 10.5286 86.5239C10.5286 87.0376 10.7327 87.5304 11.0959 87.8937L21.4495 98.2548C21.8128 98.618 22.3056 98.822 22.8193 98.822C23.3331 98.822 23.8258 98.618 24.1892 98.2548L70.0308 52.4208L101.008 21.4435L108.031 14.4201C108.395 14.0567 108.599 13.564 108.599 13.0502C108.599 12.5365 108.395 12.0437 108.031 11.6804L97.6704 1.32685C97.4878 1.14421 97.2705 0.999907 97.0314 0.902429C96.7922 0.804951 96.5361 0.756259 96.2778 0.759222ZM96.301 5.43647L103.922 13.0502L98.2688 18.7038L67.2915 49.6811L22.8198 94.1452L15.2063 86.5239L59.6777 42.0598L90.5566 11.1809L96.301 5.43647Z" fill="#F5B241"/>
<path d="M16.1403 88.0464C15.7769 87.683 15.2841 87.4789 14.7701 87.4789C14.2562 87.4789 13.7634 87.683 13.4 88.0464L6.46955 94.9765C6.10623 95.3399 5.90216 95.8327 5.90216 96.3465C5.90216 96.8603 6.10623 97.3531 6.46955 97.7165L12.5063 103.753C12.8696 104.116 13.3625 104.32 13.8764 104.32C14.3902 104.32 14.8831 104.116 15.2465 103.753L22.1767 96.8228C22.5401 96.4594 22.7441 95.9666 22.7441 95.4528C22.7441 94.9389 22.5401 94.4462 22.1767 94.0828L16.1403 88.0464ZM14.7701 92.1563L18.0669 95.4528L13.8761 99.643L10.5796 96.3465L14.7701 92.1563ZM90.4608 8.53973C90.0975 8.17643 89.6046 7.97235 89.0907 7.97235C88.5769 7.97235 88.084 8.17643 87.7206 8.53973L55.8238 40.4344C55.4605 40.7978 55.2564 41.2906 55.2564 41.8044C55.2564 42.3182 55.4605 42.811 55.8238 43.1744L66.2118 53.5616C66.5752 53.9249 67.0681 54.1289 67.5819 54.1289C68.0958 54.1289 68.5884 53.9249 68.9518 53.5616L100.849 21.6669C101.212 21.3035 101.416 20.8107 101.416 20.2969C101.416 19.7831 101.212 19.2903 100.849 18.9269L90.4608 8.53973ZM89.0907 12.6496L96.7386 20.2969L67.5819 49.4516L59.9341 41.8044L89.0907 12.6496Z" fill="#F5B241"/>
<path fill-rule="evenodd" clip-rule="evenodd" d="M75.3363 8.10052C74.834 8.10652 74.3538 8.30731 73.9967 8.66057L54.1524 28.5124C53.9665 28.6909 53.8181 28.9047 53.7158 29.1414C53.6136 29.378 53.5595 29.6326 53.5569 29.8904C53.5543 30.1482 53.603 30.4039 53.7005 30.6425C53.7979 30.8812 53.942 31.098 54.1243 31.2803C54.3066 31.4626 54.5233 31.6066 54.7619 31.7041C55.0006 31.8015 55.2563 31.8504 55.514 31.8477C55.7718 31.8451 56.0267 31.7911 56.2633 31.6888C56.4999 31.5865 56.7137 31.4381 56.8922 31.2521L75.3666 12.7702L79.6881 17.0917L90.6244 28.0356C90.8029 28.2215 91.0166 28.37 91.2533 28.4723C91.4899 28.5745 91.7448 28.6286 92.0025 28.6312C92.2603 28.6338 92.516 28.585 92.7546 28.4875C92.9933 28.3901 93.21 28.246 93.3923 28.0637C93.5745 27.8815 93.7187 27.6647 93.8161 27.426C93.9135 27.1873 93.9623 26.9316 93.9596 26.6739C93.957 26.4161 93.903 26.1614 93.8007 25.9248C93.6984 25.6882 93.5501 25.4744 93.3641 25.2958L82.4278 14.352L76.7364 8.66057C76.5523 8.47838 76.3336 8.33494 76.0931 8.23874C75.8526 8.14254 75.5953 8.09555 75.3363 8.10052Z" fill="#F5B241"/>
</svg>
