<svg width="101" height="107" viewBox="0 0 101 107" fill="none" xmlns="http://www.w3.org/2000/svg">
<path d="M69.5 37.5601C69.2433 37.5564 68.9884 37.6039 68.7501 37.6996C68.5119 37.7954 68.295 37.9375 68.1122 38.1178C67.9294 38.298 67.7842 38.5128 67.6851 38.7497C67.586 38.9866 67.5349 39.2408 67.5349 39.4976C67.5349 39.7543 67.586 40.0085 67.6851 40.2454C67.7842 40.4823 67.9294 40.6971 68.1122 40.8774C68.295 41.0576 68.5119 41.1998 68.7501 41.2955C68.9884 41.3913 69.2433 41.4387 69.5 41.4351H71.4375V43.8267C71.4368 44.2661 71.5855 44.6928 71.8592 45.0367C72.1328 45.3805 72.5152 45.6209 72.9436 45.7188C74.6427 46.1063 76.266 46.7752 77.742 47.7017C78.1135 47.9346 78.5532 48.0348 78.989 47.9855C79.4248 47.9362 79.8309 47.7402 80.1411 47.4302L81.8289 45.7429L84.5686 48.4826L82.8884 50.1628C82.5782 50.4728 82.3824 50.8788 82.3329 51.3146C82.2834 51.7504 82.3832 52.1898 82.616 52.5615C83.5385 54.041 84.2014 55.6671 84.5838 57.3679C84.6817 57.7962 84.9223 58.1784 85.2661 58.452C85.6099 58.7257 86.0365 58.8742 86.4759 58.8735H88.875V62.7485H86.4834C86.0429 62.7482 85.6155 62.8981 85.2715 63.1733C84.9276 63.4485 84.6877 63.8328 84.5913 64.2627C84.2042 65.9615 83.535 67.5774 82.6084 69.0534C82.3756 69.4251 82.2758 69.8645 82.3253 70.3003C82.3748 70.7361 82.5707 71.1421 82.8809 71.4521L84.5686 73.1403L81.8289 75.8796L80.1487 74.1994C79.8385 73.8894 79.4323 73.6939 78.9965 73.6446C78.5607 73.5953 78.1211 73.6954 77.7495 73.9284C76.2709 74.8506 74.6517 75.5213 72.9512 75.9037C72.5231 75.9997 72.1402 76.2383 71.8652 76.5802C71.5903 76.9221 71.4395 77.3471 71.4375 77.7859V80.1851H69.5C69.2433 80.1814 68.9884 80.2289 68.7501 80.3246C68.5119 80.4203 68.295 80.5625 68.1122 80.7428C67.9294 80.923 67.7842 81.1378 67.6851 81.3747C67.586 81.6116 67.5349 81.8658 67.5349 82.1226C67.5349 82.3793 67.586 82.6335 67.6851 82.8704C67.7842 83.1073 67.9294 83.3221 68.1122 83.5024C68.295 83.6826 68.5119 83.8248 68.7501 83.9205C68.9884 84.0163 69.2433 84.0637 69.5 84.0601H73.375C73.8889 84.06 74.3816 83.8558 74.745 83.4924C75.1083 83.1291 75.3125 82.6364 75.3125 82.1226V79.0574C76.3447 78.7319 77.3387 78.325 78.302 77.8313L80.459 79.9883C80.8224 80.3515 81.3151 80.5554 81.8289 80.5554C82.3426 80.5554 82.8354 80.3515 83.1987 79.9883L88.6782 74.5164C88.8592 74.3363 89.0028 74.122 89.1007 73.8863C89.1987 73.6506 89.2491 73.398 89.2491 73.1427C89.2491 72.8874 89.1987 72.6348 89.1007 72.3991C89.0028 72.1634 88.8592 71.9491 88.6782 71.769L86.5213 69.6121C87.0169 68.6507 87.4264 67.6533 87.7549 66.6226H90.8125C91.3264 66.6225 91.8191 66.4183 92.1825 66.0549C92.5458 65.6916 92.75 65.1989 92.75 64.6851V56.9351C92.75 56.4212 92.5458 55.9285 92.1825 55.5652C91.8191 55.2019 91.3264 54.9976 90.8125 54.9976H87.7473C87.4213 53.966 87.0146 52.971 86.5213 52.0081L88.6782 49.8511C89.0414 49.4877 89.2454 48.9949 89.2454 48.4812C89.2454 47.9675 89.0414 47.4747 88.6782 47.1113L83.1987 41.6318C82.8354 41.2686 82.3426 41.0647 81.8289 41.0647C81.3151 41.0647 80.8224 41.2686 80.459 41.6318L78.2945 43.7964C77.3339 43.3012 76.3421 42.891 75.3125 42.5628V39.4976C75.3125 38.9837 75.1083 38.491 74.745 38.1277C74.3816 37.7644 73.8889 37.5601 73.375 37.5601H69.5Z" fill="#F5B241"/>
<path d="M69.5 51.1226C69.2433 51.1189 68.9884 51.1664 68.7501 51.2621C68.5119 51.3579 68.295 51.5 68.1122 51.6803C67.9294 51.8605 67.7842 52.0753 67.6851 52.3122C67.586 52.5491 67.5349 52.8033 67.5349 53.0601C67.5349 53.3168 67.586 53.571 67.6851 53.8079C67.7842 54.0448 67.9294 54.2596 68.1122 54.4399C68.295 54.6202 68.5119 54.7623 68.7501 54.858C68.9884 54.9538 69.2433 55.0012 69.5 54.9976C72.6973 54.9976 75.3125 57.6128 75.3125 60.8101C75.3125 64.0081 72.6974 66.6226 69.5 66.6226C69.2433 66.6189 68.9884 66.6664 68.7501 66.7621C68.5119 66.8579 68.295 67 68.1122 67.1803C67.9294 67.3605 67.7842 67.5754 67.6851 67.8122C67.586 68.0491 67.5349 68.3033 67.5349 68.5601C67.5349 68.8168 67.586 69.0711 67.6851 69.3079C67.7842 69.5448 67.9294 69.7596 68.1122 69.9399C68.295 70.1202 68.5119 70.2623 68.7501 70.358C68.9884 70.4538 69.2433 70.5012 69.5 70.4976C74.8168 70.4976 79.1875 66.1274 79.1875 60.8101C79.1875 55.4932 74.8169 51.1226 69.5 51.1226Z" fill="#F5B241"/>
<path fill-rule="evenodd" clip-rule="evenodd" d="M25 8.49738V12.3724H40.5V8.49738H25Z" fill="white"/>
<path d="M33.2881 93.3724C30.8943 93.3724 28.9067 95.1318 28.9067 97.2502C28.9067 99.3691 30.8943 101.128 33.2881 101.128C35.6819 101.128 37.6694 99.3691 37.6694 97.2502C37.6694 95.1318 35.6819 93.3724 33.2881 93.3724ZM9.19073 15.816C8.60974 15.8161 8.05257 16.0205 7.64176 16.3841C7.23094 16.7477 7.00012 17.2407 7.00006 17.7549V87.5557C7.00012 88.0699 7.23094 88.5629 7.64176 88.9266C8.05257 89.2902 8.60974 89.4945 9.19073 89.4946H57.3854C57.9664 89.4945 58.5235 89.2902 58.9344 88.9266C59.3452 88.5629 59.576 88.0699 59.5761 87.5557V17.7549C59.576 17.2407 59.3452 16.7477 58.9344 16.3841C58.5235 16.0205 57.9664 15.8161 57.3854 15.816H9.19073ZM11.3814 19.6939H55.1947V85.6168H11.3814V19.6939Z" fill="white"/>
<path d="M31.9574 48C31.9547 48 31.9532 48 31.9505 48C31.8275 48.0005 31.7391 48.105 31.6189 48.1246L31.6086 48.0694H31.6017C31.5184 48.1057 31.4412 48.1547 31.3727 48.2151C30.4874 48.4655 29.7214 49.0955 29.7214 50.1386V54.6698H28.9488C27.8125 54.677 27.0001 55.7133 27.0001 56.8228V56.9367V56.9543C27 56.9602 27 56.9662 27.0001 56.9721C27.05 59.4771 28.3732 61.7804 30.4941 63.038C32.6597 64.3207 35.3369 64.3207 37.5026 63.038C39.664 61.7577 40.9953 59.3939 41.0001 56.8402V55.5694C41.0001 54.4599 40.1877 53.4235 39.0513 53.4235H34.1864V50.1528C34.1864 49.1108 33.4147 48.4828 32.542 48.2292C32.3816 48.0821 32.1734 48.0005 31.9574 48ZM31.9505 49.7812C32.1954 49.7812 32.436 49.9711 32.436 50.1528V54.3124C32.436 54.5482 32.5282 54.7742 32.6924 54.9409C32.8565 55.1076 33.0791 55.2013 33.3112 55.2013H39.0514C39.1032 55.2013 39.2496 55.2867 39.2496 55.5694V56.8402C39.2449 58.7678 38.2416 60.5431 36.6206 61.5033C34.9953 62.466 33.0013 62.4658 31.3762 61.5033C29.7848 60.5597 28.7882 58.8302 28.7505 56.9374V56.8237C28.7505 56.5405 28.8969 56.4554 28.9488 56.4554H30.5967C30.8288 56.4554 31.0514 56.3617 31.2155 56.195C31.3797 56.0283 31.4719 55.8023 31.4719 55.5665V50.1465C31.4719 50.0398 31.7471 49.7883 31.9505 49.7819V49.7812Z" fill="#F5B241"/>
<path d="M71.3391 35.6224L74.0486 35.7657L76.5083 36.1375L78.5972 36.6753L79.5659 32.9214L77.3862 32.3609L77.197 32.3221L74.5027 31.9134L74.3059 31.8746L71.5359 31.7393L71.3391 35.6224ZM81.8591 37.908L83.4409 38.6724L85.4919 39.9136L87.4976 41.4122L87.5278 41.451L87.8911 41.792L90.4946 38.9236L89.9951 38.4619L89.8513 38.3493L87.7624 36.7907L87.611 36.6857L85.3708 35.3234L85.2043 35.2345L83.5468 34.4398L81.8591 37.908ZM90.4946 44.379L90.8957 44.8255L90.9337 44.8643L92.3036 46.711L93.5826 48.8074L94.3546 50.4114L97.8512 48.7312L97.0338 47.044L96.943 46.877L95.5883 44.6448L95.4823 44.4859L93.9232 42.3975L93.8021 42.2617L93.3632 41.7773L90.4946 44.379ZM95.5806 53.6805L96.1103 55.7466L96.4963 58.282L96.625 60.9083L98.2598 60.8231L100.492 60.9352L100.5 60.8964V60.7068L100.356 57.9292L100.341 57.7314L99.925 55.0451L99.887 54.8474L99.3345 52.698L95.5806 53.6805ZM96.1103 65.8807L95.4973 68.2723L94.6497 70.6109L94.3318 71.2618L97.8208 72.9495L98.1765 72.2154L98.2522 72.0333L99.1604 69.5433L99.221 69.3612L99.887 66.7577L99.925 66.5675L100.167 64.9933L96.3376 64.403L96.1103 65.8807ZM92.311 74.9173L90.9336 76.764L90.8956 76.8028L89.3138 78.5586L89.2836 78.5974L87.8456 79.8992L90.4567 82.7676L91.9174 81.4351L92.0536 81.3074L93.8019 79.3774L93.923 79.2421L95.4821 77.1533L95.588 76.9943L95.8756 76.5175L92.5683 74.5043L92.311 74.9173ZM83.4409 82.9549L81.2537 84.0145L78.9604 84.8545L78.5442 84.9671L79.5129 88.7135L79.9897 88.5933L80.1714 88.5389L82.6614 87.6227L82.8354 87.5494L85.2043 86.4141L85.3708 86.3214L87.0586 85.2921L85.0454 81.9847L83.4409 82.9549ZM74.041 85.8687L71.3391 86.0045L71.5359 89.8714L74.3059 89.7357L74.5027 89.6969L75.532 89.5384L74.9492 85.7084L74.041 85.8687ZM87.6641 8.39142L89.5938 8.58157L90.4265 8.66293L91.9099 9.12413L92.5307 9.46518L94.2333 10.3885L96.0875 6.98299L94.3849 6.05942L93.5672 5.62045L93.2185 5.47713L91.4023 4.9095L91.0225 4.83571L89.9782 4.73117L88.0481 4.53345L87.6641 8.39142ZM81.3823 7.42267L80.7921 7.90704L80.5286 8.16295L79.3479 9.60094L79.1425 9.91077L78.5446 11.0082L77.6212 12.7111L81.0192 14.5577L81.9504 12.8549L82.465 11.9164L83.3806 10.7963L83.8499 10.4089L85.341 9.17522L82.8738 6.18548L81.3823 7.42267ZM95.7396 12.3648L96.3072 14.2115L96.4506 14.6656L96.6095 16.2549L96.4506 17.8443L96.0038 19.2671L95.1715 20.8111L98.5772 22.6578L99.5006 20.9549L99.6518 20.6063L100.212 18.7823L100.297 18.4025L100.336 18.0226C100.584 15.364 100.456 15.5007 100.336 14.4792L100.297 14.1069L100.212 13.7276L100.006 13.0616L99.4313 11.2149L95.7396 12.3648ZM77.3484 18.1697L77.9235 20.024L78.0978 20.5992L78.249 20.9478L79.1422 22.5901L79.3475 22.9004L80.2407 23.9827L81.4741 25.4737L84.4637 23.0064L83.2299 21.5154L82.4657 20.5845L81.7392 19.2601L81.6268 18.8726L81.0514 17.0179L77.3484 18.1697ZM91.7886 23.4146L90.4339 23.8384L88.875 23.9893H88.7704L86.8402 23.7921L86.4469 27.6444L88.3767 27.8421L88.6789 27.8809H89.0726L91.0252 27.6832L91.405 27.6056L92.9414 27.1288L94.7879 26.5536L93.6378 22.8527L91.7886 23.4146Z" fill="white"/>
<path d="M30.7314 44.0669C28.6281 44.4364 27.0593 46.2675 27.0017 48.4333C26.9441 50.5992 28.4151 52.5166 30.4959 53L30.8967 51.2155C29.6365 50.9228 28.7669 49.7841 28.8015 48.4834C28.8361 47.1829 29.7632 46.0966 31.0373 45.8728C32.3113 45.6489 33.5519 46.3579 34.0182 47.5715C34.4846 48.785 34.0474 50.1462 32.9601 50.8508L33.9268 52.3956C35.726 51.2299 36.4707 48.9248 35.695 46.9063C34.9194 44.8879 32.8348 43.6974 30.7314 44.0669Z" fill="#F5B241"/>
<rect x="2.00006" y="2" width="64" height="103" rx="8" stroke="white" stroke-width="4"/>
</svg>
