<svg width="118" height="118" viewBox="0 0 118 118" fill="none" xmlns="http://www.w3.org/2000/svg">
<path d="M2.8125 31.8724C2.29866 31.8725 1.80588 32.0767 1.44254 32.4401C1.0792 32.8034 0.875051 33.2961 0.875 33.8099V99.6849C0.875051 100.199 1.0792 100.691 1.44254 101.055C1.80588 101.418 2.29866 101.622 2.8125 101.622H99.6875C100.201 101.622 100.694 101.418 101.057 101.055C101.421 100.691 101.625 100.199 101.625 99.6849V66.7474V64.8099H97.75V66.7474V97.7474H4.75V35.7474H60.3018H62.2393V31.8724H60.3018H2.8125Z" fill="white"/>
<path fill-rule="evenodd" clip-rule="evenodd" d="M4.75 86.1224V89.9974H97.75V86.1224H4.75Z" fill="white"/>
<path d="M37.6875 97.7474C37.1737 97.7475 36.6809 97.9517 36.3175 98.3151C35.9542 98.6784 35.7501 99.1711 35.75 99.6849V115.185C35.7501 115.699 35.9542 116.191 36.3175 116.555C36.6809 116.918 37.1737 117.122 37.6875 117.122H64.8125C65.3263 117.122 65.8191 116.918 66.1825 116.555C66.5458 116.191 66.7499 115.699 66.75 115.185V99.6849C66.7499 99.1711 66.5458 98.6784 66.1825 98.3151C65.8191 97.9517 65.3263 97.7475 64.8125 97.7474H37.6875ZM39.625 101.622H62.875V113.247H39.625V101.622Z" fill="white"/>
<path fill-rule="evenodd" clip-rule="evenodd" d="M24.125 113.247V117.122H78.375V113.247H24.125Z" fill="white"/>
<path fill-rule="evenodd" clip-rule="evenodd" d="M70.625 12.4974V16.3724H97.75V12.4974H70.625ZM70.625 24.1224V27.9974H105.5V24.1224H70.625ZM70.625 35.7474V39.6224H105.5V35.7474H70.625ZM70.625 47.3724V51.2474H105.5V47.3724H70.625Z" fill="#F5B241"/>
<path d="M60.9375 0.872363C60.4237 0.872414 59.9309 1.07641 59.5675 1.43975C59.2042 1.80309 59.0001 2.29602 59 2.80986V60.844C59.0001 61.3579 59.2042 61.8506 59.5675 62.2139C59.9309 62.5773 60.4237 62.7815 60.9375 62.7815H67.749L69.1492 62.8203L80.6606 74.0518C80.9333 74.3183 81.2786 74.4985 81.6532 74.5697C82.0278 74.641 82.4151 74.5998 82.7665 74.452C83.118 74.3041 83.4181 74.0562 83.6291 73.7386C83.8401 73.421 83.9527 73.0481 83.9529 72.6668V62.8279L94.1021 62.7891H103.888H115.188C115.701 62.7891 116.194 62.5853 116.557 62.222C116.921 61.8586 117.125 61.3655 117.125 60.8516V56.4998V52.9129V23.3882V22.1924C117.129 21.9357 117.081 21.6809 116.985 21.4427C116.89 21.2044 116.748 20.9874 116.567 20.8046C116.387 20.6217 116.172 20.4765 115.935 20.3774C115.698 20.2783 115.444 20.2275 115.188 20.2275C114.931 20.2275 114.677 20.2783 114.44 20.3774C114.203 20.4765 113.988 20.6217 113.808 20.8046C113.627 20.9874 113.485 21.2044 113.39 21.4427C113.294 21.6809 113.246 21.9357 113.25 22.1924V23.3882V52.9129V56.4998V58.9141H103.888H94.0945C94.0919 58.9141 94.0893 58.9141 94.0867 58.9141L82.0076 58.9609C81.4951 58.969 81.0066 59.1796 80.6491 59.547C80.2916 59.9144 80.0943 60.4086 80.1004 60.9211L80.0775 60.8824V68.0496L71.3134 59.4973C70.9608 59.1522 70.4898 58.9547 69.9965 58.9449L67.8092 58.8985C67.7941 58.8983 67.779 58.8983 67.7638 58.8985H62.8747V4.73909H95.8122C96.0689 4.74271 96.3238 4.69528 96.562 4.59954C96.8003 4.5038 97.0171 4.36167 97.2 4.18139C97.3828 4.00112 97.528 3.78631 97.6271 3.54943C97.7262 3.31256 97.7772 3.05835 97.7772 2.80159C97.7772 2.54482 97.7262 2.29061 97.6271 2.05374C97.528 1.81686 97.3828 1.60205 97.2 1.42178C97.0171 1.24151 96.8003 1.09937 96.562 1.00363C96.3238 0.907887 96.0689 0.860456 95.8122 0.864085H60.9372L60.9375 0.872363Z" fill="#F5B241"/>
<path fill-rule="evenodd" clip-rule="evenodd" d="M103.532 0.879874C103.025 0.887846 102.541 1.09449 102.185 1.45531C101.828 1.81612 101.627 2.30251 101.625 2.80981V14.4348C101.625 14.9486 101.829 15.4413 102.193 15.8047C102.556 16.168 103.049 16.3723 103.563 16.3723H115.188C115.571 16.3721 115.945 16.2584 116.264 16.0454C116.582 15.8325 116.83 15.53 116.977 15.176C117.123 14.8221 117.162 14.4326 117.087 14.0569C117.013 13.6811 116.828 13.3359 116.557 13.0649L104.932 1.43993C104.748 1.25776 104.529 1.11441 104.289 1.01823C104.049 0.922058 103.791 0.874892 103.532 0.879874ZM105.5 7.48729L110.503 12.4973H105.5V7.48729Z" fill="#F5B241"/>
</svg>
