<svg width="26" height="32" viewBox="0 0 26 32" fill="none" xmlns="http://www.w3.org/2000/svg">
<path d="M25.3327 32H15.958C15.7807 32 15.61 31.9293 15.486 31.804L7.25933 23.536C7.00067 23.276 7.00067 22.8546 7.25933 22.5946L15.4873 14.344C15.6127 14.2186 15.7833 14.1466 15.9607 14.1466H25.3327C25.602 14.1466 25.8447 14.3093 25.9487 14.5573C26.0513 14.8066 25.9953 15.092 25.806 15.2826L18.0593 23.0666L25.806 30.8613C25.9967 31.0533 26.0527 31.3386 25.9487 31.5866C25.8447 31.8373 25.602 32 25.3327 32ZM16.2353 30.6666H23.73L16.646 23.5386C16.3873 23.2786 16.3873 22.8586 16.646 22.5986L23.7287 15.4813H16.2367L8.67267 23.0666L16.2353 30.6666ZM5.37 21.3946C5.19267 21.3946 5.022 21.324 4.898 21.1986L0.194 16.4706C-0.0646667 16.2106 -0.0646667 15.7906 0.194 15.5293L15.47 0.195953C15.6367 0.0292863 15.87 -0.0307137 16.082 0.0146197H25.3127C25.582 0.0146197 25.8247 0.177286 25.9287 0.425286C26.0313 0.67462 25.9753 0.959953 25.786 1.15062L5.84333 21.1986C5.718 21.324 5.54867 21.3946 5.37 21.3946ZM1.60733 16L5.37133 19.7826L23.7087 1.34795H16.2033L1.60733 16Z" fill="black"/>
</svg>
