<svg width="1011" height="166" viewBox="0 0 1011 166" fill="none" xmlns="http://www.w3.org/2000/svg">
<path d="M93.5 83.9678H495.5" stroke="white"/>
<path d="M80 82.9999C146.5 145.167 325.5 232.2 509.5 82.9999C693.5 -66.2001 871.5 20.8333 937.5 82.9999" stroke="white"/>
<path d="M523 83.9678H925" stroke="white"/>
<circle cx="80" cy="83" r="13.5" fill="black" stroke="white"/>
<circle cx="509" cy="83.4678" r="13.5" fill="black" stroke="white"/>
<circle cx="938" cy="83.4678" r="13.5" fill="black" stroke="white"/>
<path d="M80.1924 89H82.1172V76.3174H80.1748L76.835 78.6904V80.624L80.1484 78.2686H80.1924V89Z" fill="white"/>
<path d="M504.879 80.5029V80.5205H506.742V80.4941C506.742 79.1758 507.788 78.1738 509.177 78.1738C510.495 78.1738 511.515 79.0703 511.515 80.1953C511.515 81.1885 511.11 81.8564 509.563 83.4648L504.984 88.1318V89.4678H513.659V87.8066H507.639V87.7627L510.812 84.5723C512.666 82.6738 513.457 81.5752 513.457 80.0986C513.457 78.0859 511.655 76.5479 509.238 76.5479C506.716 76.5479 504.879 78.2178 504.879 80.5029Z" fill="white"/>
<path d="M936.744 83.7285H938.326C939.996 83.7285 941.033 84.5723 941.033 85.9434C941.033 87.1826 939.926 88.0615 938.379 88.0615C936.779 88.0615 935.777 87.2266 935.654 86.0137H933.765C933.888 88.2021 935.646 89.7051 938.379 89.7051C941.024 89.7051 943.037 88.1846 943.037 85.9697C943.037 84.1943 941.807 83.0254 939.899 82.8936V82.8584C941.473 82.5771 942.51 81.4434 942.51 79.8613C942.51 77.9102 940.761 76.5479 938.361 76.5479C935.848 76.5479 934.169 77.9805 934.02 80.2041H935.874C935.988 78.9561 936.902 78.165 938.273 78.165C939.776 78.165 940.585 78.9473 940.585 80.125C940.585 81.3203 939.645 82.1816 938.273 82.1816H936.744V83.7285Z" fill="white"/>
<path d="M865.923 40.6035V50.4678H869.122C872.082 50.4678 873.798 48.6562 873.798 45.5322C873.798 42.415 872.075 40.6035 869.122 40.6035H865.923ZM866.859 41.4512H869.067C871.494 41.4512 872.848 42.9141 872.848 45.5391C872.848 48.1572 871.494 49.6201 869.067 49.6201H866.859V41.4512ZM877.988 50.584C879.923 50.584 881.229 49.1689 881.229 46.9131C881.229 44.6504 879.923 43.2422 877.988 43.2422C876.061 43.2422 874.748 44.6504 874.748 46.9131C874.748 49.1689 876.054 50.584 877.988 50.584ZM877.988 49.7842C876.594 49.7842 875.671 48.7178 875.671 46.9131C875.671 45.1084 876.594 44.042 877.988 44.042C879.383 44.042 880.312 45.1084 880.312 46.9131C880.312 48.7178 879.383 49.7842 877.988 49.7842ZM888.112 44.0352C889.397 44.0352 890.252 45.0127 890.272 46.4141H885.884C885.959 45.0127 886.841 44.0352 888.112 44.0352ZM890.218 48.4512C890.02 49.2305 889.274 49.791 888.201 49.791C886.786 49.791 885.877 48.793 885.877 47.1865V47.1318H891.202V46.749C891.202 44.6299 890.013 43.2422 888.126 43.2422C886.198 43.2422 884.947 44.7256 884.947 46.9336C884.947 49.1895 886.185 50.584 888.181 50.584C889.746 50.584 890.901 49.6816 891.113 48.4512H890.218ZM897.99 43.3584H897.047L894.88 49.5176H894.859L892.699 43.3584H891.742L894.388 50.4678H895.352L897.99 43.3584ZM901.538 44.0352C902.823 44.0352 903.678 45.0127 903.698 46.4141H899.31C899.385 45.0127 900.267 44.0352 901.538 44.0352ZM903.644 48.4512C903.445 49.2305 902.7 49.791 901.627 49.791C900.212 49.791 899.303 48.793 899.303 47.1865V47.1318H904.628V46.749C904.628 44.6299 903.438 43.2422 901.552 43.2422C899.624 43.2422 898.373 44.7256 898.373 46.9336C898.373 49.1895 899.61 50.584 901.606 50.584C903.172 50.584 904.327 49.6816 904.539 48.4512H903.644ZM905.838 50.4678H906.74V46.0381C906.74 44.8896 907.383 44.1035 908.395 44.1035C908.702 44.1035 908.955 44.1514 909.071 44.2061V43.3174C908.962 43.29 908.75 43.2422 908.511 43.2422C907.636 43.2422 906.973 43.7549 906.713 44.623H906.692V43.3584H905.838V50.4678ZM910.555 53.0381C911.724 53.0381 912.229 52.5732 912.852 50.8984L915.647 43.3584H914.697L912.53 49.5654H912.51L910.35 43.3584H909.379L912.045 50.5156L911.854 51.0488C911.539 51.9375 911.184 52.2656 910.534 52.2656C910.391 52.2656 910.213 52.252 910.104 52.2246V52.9971C910.206 53.0176 910.411 53.0381 910.555 53.0381ZM916.933 41.5811V43.3584H915.873V44.1104H916.933V48.7178C916.933 50.0029 917.411 50.5088 918.601 50.5088C918.792 50.5088 919.175 50.4883 919.271 50.4678V49.6953C919.216 49.709 918.874 49.7227 918.778 49.7227C918.122 49.7227 917.835 49.4082 917.835 48.6768V44.1104H919.236V43.3584H917.835V41.5811H916.933ZM920.583 50.4678H921.492V46.2842C921.492 44.9443 922.319 44.0488 923.598 44.0488C924.801 44.0488 925.491 44.7939 925.491 46.0244V50.4678H926.4V45.874C926.4 44.2812 925.416 43.2422 923.857 43.2422C922.723 43.2422 921.875 43.7959 921.513 44.6709H921.492V40.6035H920.583V50.4678ZM927.979 50.4678H928.882V43.3584H927.979V50.4678ZM928.431 41.9229C928.766 41.9229 929.039 41.6562 929.039 41.3213C929.039 40.9932 928.766 40.7266 928.431 40.7266C928.103 40.7266 927.829 40.9932 927.829 41.3213C927.829 41.6562 928.103 41.9229 928.431 41.9229ZM930.502 50.4678H931.404V46.2568C931.404 44.9375 932.231 44.0488 933.462 44.0488C934.651 44.0488 935.335 44.7598 935.335 46.0039V50.4678H936.237V45.8604C936.237 44.2471 935.28 43.2422 933.722 43.2422C932.573 43.2422 931.739 43.8096 931.377 44.6709H931.356V43.3584H930.502V50.4678ZM940.571 49.7363C939.231 49.7363 938.336 48.6152 938.336 46.8994C938.336 45.1699 939.231 44.042 940.571 44.042C941.938 44.042 942.861 45.1904 942.861 46.8926C942.861 48.5947 941.938 49.7363 940.571 49.7363ZM940.66 53.0996C942.561 53.0996 943.771 52.0059 943.771 50.3516V43.3584H942.909V44.8623H942.889C942.472 43.8916 941.562 43.2422 940.428 43.2422C938.609 43.2422 937.406 44.6846 937.406 46.8926C937.406 49.0938 938.609 50.5361 940.407 50.5361C941.542 50.5361 942.458 49.873 942.841 48.957H942.861V50.3857C942.861 51.5479 942.034 52.3203 940.701 52.3203C939.669 52.3203 938.91 51.8213 938.678 51.124H937.741C937.939 52.2451 939.108 53.0996 940.66 53.0996ZM948.569 50.4678H949.479V44.1104H951.003V43.3584H949.472V42.4766C949.472 41.6836 949.834 41.335 950.518 41.335C950.709 41.335 950.9 41.3555 951.044 41.3828V40.6377C950.894 40.6104 950.634 40.583 950.388 40.583C949.198 40.583 948.569 41.1709 948.569 42.4561V43.3584H947.578V44.1104H948.569V50.4678ZM954.66 50.584C956.595 50.584 957.9 49.1689 957.9 46.9131C957.9 44.6504 956.595 43.2422 954.66 43.2422C952.732 43.2422 951.42 44.6504 951.42 46.9131C951.42 49.1689 952.726 50.584 954.66 50.584ZM954.66 49.7842C953.266 49.7842 952.343 48.7178 952.343 46.9131C952.343 45.1084 953.266 44.042 954.66 44.042C956.055 44.042 956.984 45.1084 956.984 46.9131C956.984 48.7178 956.055 49.7842 954.66 49.7842ZM959.104 50.4678H960.006V46.0381C960.006 44.8896 960.648 44.1035 961.66 44.1035C961.968 44.1035 962.221 44.1514 962.337 44.2061V43.3174C962.228 43.29 962.016 43.2422 961.776 43.2422C960.901 43.2422 960.238 43.7549 959.979 44.623H959.958V43.3584H959.104V50.4678ZM966.691 53.0381C967.86 53.0381 968.366 52.5732 968.988 50.8984L971.784 43.3584H970.834L968.667 49.5654H968.646L966.486 43.3584H965.516L968.182 50.5156L967.99 51.0488C967.676 51.9375 967.32 52.2656 966.671 52.2656C966.527 52.2656 966.35 52.252 966.24 52.2246V52.9971C966.343 53.0176 966.548 53.0381 966.691 53.0381ZM975.414 50.584C977.349 50.584 978.654 49.1689 978.654 46.9131C978.654 44.6504 977.349 43.2422 975.414 43.2422C973.486 43.2422 972.174 44.6504 972.174 46.9131C972.174 49.1689 973.479 50.584 975.414 50.584ZM975.414 49.7842C974.02 49.7842 973.097 48.7178 973.097 46.9131C973.097 45.1084 974.02 44.042 975.414 44.042C976.809 44.042 977.738 45.1084 977.738 46.9131C977.738 48.7178 976.809 49.7842 975.414 49.7842ZM985.559 43.3584H984.656V47.5762C984.656 48.9092 983.822 49.7773 982.585 49.7773C981.396 49.7773 980.726 49.0801 980.726 47.8223V43.3584H979.816V47.9795C979.816 49.5791 980.78 50.584 982.325 50.584C983.453 50.584 984.308 50.0234 984.684 49.1484H984.704V50.4678H985.559V43.3584ZM987.117 50.4678H988.02V46.0381C988.02 44.8896 988.662 44.1035 989.674 44.1035C989.981 44.1035 990.234 44.1514 990.351 44.2061V43.3174C990.241 43.29 990.029 43.2422 989.79 43.2422C988.915 43.2422 988.252 43.7549 987.992 44.623H987.972V43.3584H987.117V50.4678ZM991.144 45.2588C991.144 46.2021 991.759 46.8105 993.044 47.1318L994.199 47.4189C995.149 47.6514 995.505 47.9795 995.505 48.5947C995.505 49.3398 994.801 49.8389 993.734 49.8389C992.668 49.8389 991.971 49.3193 991.841 48.4785H990.938C991.055 49.7295 992.155 50.584 993.68 50.584C995.286 50.584 996.414 49.7295 996.414 48.5264C996.414 47.5078 995.881 46.9883 994.459 46.6328L993.406 46.3799C992.456 46.1475 992.039 45.792 992.039 45.2109C992.039 44.5 992.702 43.9873 993.673 43.9873C994.657 43.9873 995.307 44.5068 995.416 45.3477H996.284C996.195 44.0967 995.156 43.2422 993.7 43.2422C992.196 43.2422 991.144 44.083 991.144 45.2588ZM1000.44 44.0352C1001.73 44.0352 1002.58 45.0127 1002.6 46.4141H998.212C998.287 45.0127 999.169 44.0352 1000.44 44.0352ZM1002.55 48.4512C1002.35 49.2305 1001.6 49.791 1000.53 49.791C999.114 49.791 998.205 48.793 998.205 47.1865V47.1318H1003.53V46.749C1003.53 44.6299 1002.34 43.2422 1000.45 43.2422C998.526 43.2422 997.275 44.7256 997.275 46.9336C997.275 49.1895 998.513 50.584 1000.51 50.584C1002.07 50.584 1003.23 49.6816 1003.44 48.4512H1002.55ZM1004.8 50.4678H1005.7V40.6035H1004.8V50.4678ZM1007.69 50.4678H1008.6V44.1104H1010.12V43.3584H1008.59V42.4766C1008.59 41.6836 1008.95 41.335 1009.63 41.335C1009.83 41.335 1010.02 41.3555 1010.16 41.3828V40.6377C1010.01 40.6104 1009.75 40.583 1009.5 40.583C1008.32 40.583 1007.69 41.1709 1007.69 42.4561V43.3584H1006.7V44.1104H1007.69V50.4678Z" fill="white"/>
<path d="M450.491 50.4678C452.576 50.4678 453.827 49.4424 453.827 47.7607C453.827 46.3936 452.877 45.4707 451.51 45.3066V45.2588C452.562 45.0674 453.314 44.1309 453.314 43.0371C453.314 41.5811 452.166 40.6035 450.471 40.6035H446.923V50.4678H450.491ZM447.853 41.4307H450.272C451.585 41.4307 452.371 42.0664 452.371 43.1396C452.371 44.3018 451.496 44.9854 449.999 44.9854H447.853V41.4307ZM447.853 49.6406V45.792H450.238C451.94 45.792 452.87 46.4824 452.87 47.7129C452.87 48.9365 451.975 49.6406 450.361 49.6406H447.853ZM457.833 44.0352C459.118 44.0352 459.973 45.0127 459.993 46.4141H455.604C455.68 45.0127 456.562 44.0352 457.833 44.0352ZM459.938 48.4512C459.74 49.2305 458.995 49.791 457.922 49.791C456.507 49.791 455.598 48.793 455.598 47.1865V47.1318H460.923V46.749C460.923 44.6299 459.733 43.2422 457.847 43.2422C455.919 43.2422 454.668 44.7256 454.668 46.9336C454.668 49.1895 455.905 50.584 457.901 50.584C459.467 50.584 460.622 49.6816 460.834 48.4512H459.938ZM465.065 50.4678H465.968V43.3584H465.065V50.4678ZM465.517 41.9229C465.852 41.9229 466.125 41.6562 466.125 41.3213C466.125 40.9932 465.852 40.7266 465.517 40.7266C465.188 40.7266 464.915 40.9932 464.915 41.3213C464.915 41.6562 465.188 41.9229 465.517 41.9229ZM467.588 50.4678H468.49V46.2568C468.49 44.9375 469.317 44.0488 470.548 44.0488C471.737 44.0488 472.421 44.7598 472.421 46.0039V50.4678H473.323V45.8604C473.323 44.2471 472.366 43.2422 470.808 43.2422C469.659 43.2422 468.825 43.8096 468.463 44.6709H468.442V43.3584H467.588V50.4678ZM474.704 45.2588C474.704 46.2021 475.319 46.8105 476.604 47.1318L477.76 47.4189C478.71 47.6514 479.065 47.9795 479.065 48.5947C479.065 49.3398 478.361 49.8389 477.295 49.8389C476.229 49.8389 475.531 49.3193 475.401 48.4785H474.499C474.615 49.7295 475.716 50.584 477.24 50.584C478.847 50.584 479.975 49.7295 479.975 48.5264C479.975 47.5078 479.441 46.9883 478.02 46.6328L476.967 46.3799C476.017 46.1475 475.6 45.792 475.6 45.2109C475.6 44.5 476.263 43.9873 477.233 43.9873C478.218 43.9873 478.867 44.5068 478.977 45.3477H479.845C479.756 44.0967 478.717 43.2422 477.261 43.2422C475.757 43.2422 474.704 44.083 474.704 45.2588ZM484.521 43.2422C483.365 43.2422 482.463 43.9189 482.073 44.8623H482.046V43.3584H481.191V52.8193H482.094V49.0049H482.121C482.497 49.9277 483.393 50.584 484.541 50.584C486.325 50.584 487.549 49.1279 487.549 46.9131C487.549 44.7051 486.318 43.2422 484.521 43.2422ZM484.363 49.7842C483.017 49.7842 482.094 48.6289 482.094 46.9131C482.094 45.2041 483.017 44.042 484.363 44.042C485.737 44.042 486.626 45.1836 486.626 46.9131C486.626 48.6494 485.737 49.7842 484.363 49.7842ZM488.827 50.4678H489.729V43.3584H488.827V50.4678ZM489.278 41.9229C489.613 41.9229 489.887 41.6562 489.887 41.3213C489.887 40.9932 489.613 40.7266 489.278 40.7266C488.95 40.7266 488.677 40.9932 488.677 41.3213C488.677 41.6562 488.95 41.9229 489.278 41.9229ZM491.35 50.4678H492.252V46.0381C492.252 44.8896 492.895 44.1035 493.906 44.1035C494.214 44.1035 494.467 44.1514 494.583 44.2061V43.3174C494.474 43.29 494.262 43.2422 494.022 43.2422C493.147 43.2422 492.484 43.7549 492.225 44.623H492.204V43.3584H491.35V50.4678ZM497.96 44.0352C499.245 44.0352 500.1 45.0127 500.12 46.4141H495.731C495.807 45.0127 496.688 44.0352 497.96 44.0352ZM500.065 48.4512C499.867 49.2305 499.122 49.791 498.049 49.791C496.634 49.791 495.725 48.793 495.725 47.1865V47.1318H501.05V46.749C501.05 44.6299 499.86 43.2422 497.974 43.2422C496.046 43.2422 494.795 44.7256 494.795 46.9336C494.795 49.1895 496.032 50.584 498.028 50.584C499.594 50.584 500.749 49.6816 500.961 48.4512H500.065ZM504.946 50.584C506.095 50.584 507.004 49.9209 507.407 48.9639H507.428V50.4678H508.289V40.6035H507.38V44.8213H507.359C506.983 43.8984 506.074 43.2422 504.926 43.2422C503.142 43.2422 501.904 44.6982 501.904 46.9131C501.904 49.1211 503.148 50.584 504.946 50.584ZM505.104 44.042C506.457 44.042 507.387 45.1973 507.387 46.9131C507.387 48.6357 506.457 49.7842 505.104 49.7842C503.736 49.7842 502.834 48.6494 502.834 46.9131C502.834 45.1768 503.736 44.042 505.104 44.042ZM516.205 50.584C517.996 50.584 519.213 49.1279 519.213 46.9131C519.213 44.6982 517.996 43.2422 516.212 43.2422C515.098 43.2422 514.182 43.8643 513.778 44.8418H513.758V40.6035H512.849V50.4678H513.717V48.9639H513.737C514.161 49.9619 515.07 50.584 516.205 50.584ZM516.034 44.042C517.401 44.042 518.283 45.1768 518.283 46.9131C518.283 48.6562 517.401 49.7842 516.034 49.7842C514.694 49.7842 513.751 48.6221 513.751 46.9131C513.751 45.2109 514.701 44.042 516.034 44.042ZM520.785 53.0381C521.954 53.0381 522.46 52.5732 523.082 50.8984L525.878 43.3584H524.928L522.761 49.5654H522.74L520.58 43.3584H519.609L522.275 50.5156L522.084 51.0488C521.77 51.9375 521.414 52.2656 520.765 52.2656C520.621 52.2656 520.443 52.252 520.334 52.2246V52.9971C520.437 53.0176 520.642 53.0381 520.785 53.0381ZM531.935 49.8047C530.971 49.8047 530.308 49.2715 530.308 48.499C530.308 47.7129 530.93 47.2275 532.051 47.1523L534.156 47.0088V47.7949C534.156 48.9229 533.179 49.8047 531.935 49.8047ZM531.75 50.584C532.81 50.584 533.78 49.9961 534.177 49.1143H534.197V50.4678H535.059V45.6006C535.059 44.1514 534.04 43.2422 532.42 43.2422C530.8 43.2422 529.754 44.1445 529.651 45.416H530.526C530.684 44.5547 531.354 44.042 532.399 44.042C533.507 44.042 534.156 44.6572 534.156 45.6826V46.2979L531.941 46.4346C530.301 46.5439 529.392 47.2822 529.392 48.499C529.392 49.7432 530.349 50.584 531.75 50.584ZM536.576 50.4678H537.479V46.2568C537.479 44.9375 538.306 44.0488 539.536 44.0488C540.726 44.0488 541.409 44.7598 541.409 46.0039V50.4678H542.312V45.8604C542.312 44.2471 541.354 43.2422 539.796 43.2422C538.647 43.2422 537.813 43.8096 537.451 44.6709H537.431V43.3584H536.576V50.4678ZM546.769 50.4678H547.671V43.3584H546.769V50.4678ZM547.22 41.9229C547.555 41.9229 547.828 41.6562 547.828 41.3213C547.828 40.9932 547.555 40.7266 547.22 40.7266C546.892 40.7266 546.618 40.9932 546.618 41.3213C546.618 41.6562 546.892 41.9229 547.22 41.9229ZM551.978 50.584C553.126 50.584 554.035 49.9209 554.438 48.9639H554.459V50.4678H555.32V40.6035H554.411V44.8213H554.391C554.015 43.8984 553.105 43.2422 551.957 43.2422C550.173 43.2422 548.936 44.6982 548.936 46.9131C548.936 49.1211 550.18 50.584 551.978 50.584ZM552.135 44.042C553.488 44.042 554.418 45.1973 554.418 46.9131C554.418 48.6357 553.488 49.7842 552.135 49.7842C550.768 49.7842 549.865 48.6494 549.865 46.9131C549.865 45.1768 550.768 44.042 552.135 44.042ZM559.757 44.0352C561.042 44.0352 561.896 45.0127 561.917 46.4141H557.528C557.604 45.0127 558.485 44.0352 559.757 44.0352ZM561.862 48.4512C561.664 49.2305 560.919 49.791 559.846 49.791C558.431 49.791 557.521 48.793 557.521 47.1865V47.1318H562.847V46.749C562.847 44.6299 561.657 43.2422 559.771 43.2422C557.843 43.2422 556.592 44.7256 556.592 46.9336C556.592 49.1895 557.829 50.584 559.825 50.584C561.391 50.584 562.546 49.6816 562.758 48.4512H561.862ZM566.347 49.8047C565.383 49.8047 564.72 49.2715 564.72 48.499C564.72 47.7129 565.342 47.2275 566.463 47.1523L568.568 47.0088V47.7949C568.568 48.9229 567.591 49.8047 566.347 49.8047ZM566.162 50.584C567.222 50.584 568.192 49.9961 568.589 49.1143H568.609V50.4678H569.471V45.6006C569.471 44.1514 568.452 43.2422 566.832 43.2422C565.212 43.2422 564.166 44.1445 564.063 45.416H564.938C565.096 44.5547 565.766 44.042 566.812 44.042C567.919 44.042 568.568 44.6572 568.568 45.6826V46.2979L566.354 46.4346C564.713 46.5439 563.804 47.2822 563.804 48.499C563.804 49.7432 564.761 50.584 566.162 50.584Z" fill="white"/>
<path d="M1.85254 40.6035H0.922852V47.0225C0.922852 49.1484 2.36523 50.625 4.7373 50.625C7.10938 50.625 8.55859 49.1484 8.55859 47.0225V40.6035H7.62207V46.9678C7.62207 48.6221 6.54883 49.7568 4.7373 49.7568C2.93262 49.7568 1.85254 48.6221 1.85254 46.9678V40.6035ZM10.2539 50.4678H11.1562V46.2568C11.1562 44.9375 11.9834 44.0488 13.2139 44.0488C14.4033 44.0488 15.0869 44.7598 15.0869 46.0039V50.4678H15.9893V45.8604C15.9893 44.2471 15.0322 43.2422 13.4736 43.2422C12.3252 43.2422 11.4912 43.8096 11.1289 44.6709H11.1084V43.3584H10.2539V50.4678ZM20.2002 50.584C21.3486 50.584 22.2578 49.9209 22.6611 48.9639H22.6816V50.4678H23.543V40.6035H22.6338V44.8213H22.6133C22.2373 43.8984 21.3281 43.2422 20.1797 43.2422C18.3955 43.2422 17.1582 44.6982 17.1582 46.9131C17.1582 49.1211 18.4023 50.584 20.2002 50.584ZM20.3574 44.042C21.7109 44.042 22.6406 45.1973 22.6406 46.9131C22.6406 48.6357 21.7109 49.7842 20.3574 49.7842C18.9902 49.7842 18.0879 48.6494 18.0879 46.9131C18.0879 45.1768 18.9902 44.042 20.3574 44.042ZM27.9795 44.0352C29.2646 44.0352 30.1191 45.0127 30.1396 46.4141H25.751C25.8262 45.0127 26.708 44.0352 27.9795 44.0352ZM30.085 48.4512C29.8867 49.2305 29.1416 49.791 28.0684 49.791C26.6533 49.791 25.7441 48.793 25.7441 47.1865V47.1318H31.0693V46.749C31.0693 44.6299 29.8799 43.2422 27.9932 43.2422C26.0654 43.2422 24.8145 44.7256 24.8145 46.9336C24.8145 49.1895 26.0518 50.584 28.0479 50.584C29.6133 50.584 30.7686 49.6816 30.9805 48.4512H30.085ZM32.2793 50.4678H33.1816V46.0381C33.1816 44.8896 33.8242 44.1035 34.8359 44.1035C35.1436 44.1035 35.3965 44.1514 35.5127 44.2061V43.3174C35.4033 43.29 35.1914 43.2422 34.9521 43.2422C34.0771 43.2422 33.4141 43.7549 33.1543 44.623H33.1338V43.3584H32.2793V50.4678ZM36.3057 45.2588C36.3057 46.2021 36.9209 46.8105 38.2061 47.1318L39.3613 47.4189C40.3115 47.6514 40.667 47.9795 40.667 48.5947C40.667 49.3398 39.9629 49.8389 38.8965 49.8389C37.8301 49.8389 37.1328 49.3193 37.0029 48.4785H36.1006C36.2168 49.7295 37.3174 50.584 38.8418 50.584C40.4482 50.584 41.5762 49.7295 41.5762 48.5264C41.5762 47.5078 41.043 46.9883 39.6211 46.6328L38.5684 46.3799C37.6182 46.1475 37.2012 45.792 37.2012 45.2109C37.2012 44.5 37.8643 43.9873 38.835 43.9873C39.8193 43.9873 40.4688 44.5068 40.5781 45.3477H41.4463C41.3574 44.0967 40.3184 43.2422 38.8623 43.2422C37.3584 43.2422 36.3057 44.083 36.3057 45.2588ZM43.1826 41.5811V43.3584H42.123V44.1104H43.1826V48.7178C43.1826 50.0029 43.6611 50.5088 44.8506 50.5088C45.042 50.5088 45.4248 50.4883 45.5205 50.4678V49.6953C45.4658 49.709 45.124 49.7227 45.0283 49.7227C44.3721 49.7227 44.085 49.4082 44.085 48.6768V44.1104H45.4863V43.3584H44.085V41.5811H43.1826ZM48.8564 49.8047C47.8926 49.8047 47.2295 49.2715 47.2295 48.499C47.2295 47.7129 47.8516 47.2275 48.9727 47.1523L51.0781 47.0088V47.7949C51.0781 48.9229 50.1006 49.8047 48.8564 49.8047ZM48.6719 50.584C49.7314 50.584 50.7021 49.9961 51.0986 49.1143H51.1191V50.4678H51.9805V45.6006C51.9805 44.1514 50.9619 43.2422 49.3418 43.2422C47.7217 43.2422 46.6758 44.1445 46.5732 45.416H47.4482C47.6055 44.5547 48.2754 44.042 49.3213 44.042C50.4287 44.042 51.0781 44.6572 51.0781 45.6826V46.2979L48.8633 46.4346C47.2227 46.5439 46.3135 47.2822 46.3135 48.499C46.3135 49.7432 47.2705 50.584 48.6719 50.584ZM53.498 50.4678H54.4004V46.2568C54.4004 44.9375 55.2275 44.0488 56.458 44.0488C57.6475 44.0488 58.3311 44.7598 58.3311 46.0039V50.4678H59.2334V45.8604C59.2334 44.2471 58.2764 43.2422 56.7178 43.2422C55.5693 43.2422 54.7354 43.8096 54.373 44.6709H54.3525V43.3584H53.498V50.4678ZM63.4443 50.584C64.5928 50.584 65.502 49.9209 65.9053 48.9639H65.9258V50.4678H66.7871V40.6035H65.8779V44.8213H65.8574C65.4814 43.8984 64.5723 43.2422 63.4238 43.2422C61.6396 43.2422 60.4023 44.6982 60.4023 46.9131C60.4023 49.1211 61.6465 50.584 63.4443 50.584ZM63.6016 44.042C64.9551 44.042 65.8848 45.1973 65.8848 46.9131C65.8848 48.6357 64.9551 49.7842 63.6016 49.7842C62.2344 49.7842 61.332 48.6494 61.332 46.9131C61.332 45.1768 62.2344 44.042 63.6016 44.042ZM71.6748 41.5811V43.3584H70.6152V44.1104H71.6748V48.7178C71.6748 50.0029 72.1533 50.5088 73.3428 50.5088C73.5342 50.5088 73.917 50.4883 74.0127 50.4678V49.6953C73.958 49.709 73.6162 49.7227 73.5205 49.7227C72.8643 49.7227 72.5771 49.4082 72.5771 48.6768V44.1104H73.9785V43.3584H72.5771V41.5811H71.6748ZM75.3252 50.4678H76.2344V46.2842C76.2344 44.9443 77.0615 44.0488 78.3398 44.0488C79.543 44.0488 80.2334 44.7939 80.2334 46.0244V50.4678H81.1426V45.874C81.1426 44.2812 80.1582 43.2422 78.5996 43.2422C77.4648 43.2422 76.6172 43.7959 76.2549 44.6709H76.2344V40.6035H75.3252V50.4678ZM85.4697 44.0352C86.7549 44.0352 87.6094 45.0127 87.6299 46.4141H83.2412C83.3164 45.0127 84.1982 44.0352 85.4697 44.0352ZM87.5752 48.4512C87.377 49.2305 86.6318 49.791 85.5586 49.791C84.1436 49.791 83.2344 48.793 83.2344 47.1865V47.1318H88.5596V46.749C88.5596 44.6299 87.3701 43.2422 85.4834 43.2422C83.5557 43.2422 82.3047 44.7256 82.3047 46.9336C82.3047 49.1895 83.542 50.584 85.5381 50.584C87.1035 50.584 88.2588 49.6816 88.4707 48.4512H87.5752ZM98.4238 45.6074C98.2461 44.3359 97.1729 43.2422 95.498 43.2422C93.5635 43.2422 92.2852 44.6709 92.2852 46.9131C92.2852 49.1895 93.5635 50.584 95.5049 50.584C97.0771 50.584 98.2324 49.627 98.4307 48.2666H97.5352C97.3301 49.1895 96.585 49.7842 95.5117 49.7842C94.124 49.7842 93.208 48.6973 93.208 46.9131C93.208 45.1562 94.1172 44.042 95.5049 44.042C96.626 44.042 97.3438 44.7324 97.5352 45.6074H98.4238ZM99.6201 50.4678H100.522V40.6035H99.6201V50.4678ZM102.204 50.4678H103.106V43.3584H102.204V50.4678ZM102.655 41.9229C102.99 41.9229 103.264 41.6562 103.264 41.3213C103.264 40.9932 102.99 40.7266 102.655 40.7266C102.327 40.7266 102.054 40.9932 102.054 41.3213C102.054 41.6562 102.327 41.9229 102.655 41.9229ZM107.536 44.0352C108.821 44.0352 109.676 45.0127 109.696 46.4141H105.308C105.383 45.0127 106.265 44.0352 107.536 44.0352ZM109.642 48.4512C109.443 49.2305 108.698 49.791 107.625 49.791C106.21 49.791 105.301 48.793 105.301 47.1865V47.1318H110.626V46.749C110.626 44.6299 109.437 43.2422 107.55 43.2422C105.622 43.2422 104.371 44.7256 104.371 46.9336C104.371 49.1895 105.608 50.584 107.604 50.584C109.17 50.584 110.325 49.6816 110.537 48.4512H109.642ZM111.836 50.4678H112.738V46.2568C112.738 44.9375 113.565 44.0488 114.796 44.0488C115.985 44.0488 116.669 44.7598 116.669 46.0039V50.4678H117.571V45.8604C117.571 44.2471 116.614 43.2422 115.056 43.2422C113.907 43.2422 113.073 43.8096 112.711 44.6709H112.69V43.3584H111.836V50.4678ZM119.485 41.5811V43.3584H118.426V44.1104H119.485V48.7178C119.485 50.0029 119.964 50.5088 121.153 50.5088C121.345 50.5088 121.728 50.4883 121.823 50.4678V49.6953C121.769 49.709 121.427 49.7227 121.331 49.7227C120.675 49.7227 120.388 49.4082 120.388 48.6768V44.1104H121.789V43.3584H120.388V41.5811H119.485ZM123.977 43.9395V40.6035H123.136V43.9395H123.977ZM125.46 45.2588C125.46 46.2021 126.075 46.8105 127.36 47.1318L128.516 47.4189C129.466 47.6514 129.821 47.9795 129.821 48.5947C129.821 49.3398 129.117 49.8389 128.051 49.8389C126.984 49.8389 126.287 49.3193 126.157 48.4785H125.255C125.371 49.7295 126.472 50.584 127.996 50.584C129.603 50.584 130.73 49.7295 130.73 48.5264C130.73 47.5078 130.197 46.9883 128.775 46.6328L127.723 46.3799C126.772 46.1475 126.355 45.792 126.355 45.2109C126.355 44.5 127.019 43.9873 127.989 43.9873C128.974 43.9873 129.623 44.5068 129.732 45.3477H130.601C130.512 44.0967 129.473 43.2422 128.017 43.2422C126.513 43.2422 125.46 44.083 125.46 45.2588ZM138.147 43.2422C136.992 43.2422 136.09 43.9189 135.7 44.8623H135.673V43.3584H134.818V52.8193H135.721V49.0049H135.748C136.124 49.9277 137.02 50.584 138.168 50.584C139.952 50.584 141.176 49.1279 141.176 46.9131C141.176 44.7051 139.945 43.2422 138.147 43.2422ZM137.99 49.7842C136.644 49.7842 135.721 48.6289 135.721 46.9131C135.721 45.2041 136.644 44.042 137.99 44.042C139.364 44.042 140.253 45.1836 140.253 46.9131C140.253 48.6494 139.364 49.7842 137.99 49.7842ZM144.683 49.8047C143.719 49.8047 143.056 49.2715 143.056 48.499C143.056 47.7129 143.678 47.2275 144.799 47.1523L146.904 47.0088V47.7949C146.904 48.9229 145.927 49.8047 144.683 49.8047ZM144.498 50.584C145.558 50.584 146.528 49.9961 146.925 49.1143H146.945V50.4678H147.807V45.6006C147.807 44.1514 146.788 43.2422 145.168 43.2422C143.548 43.2422 142.502 44.1445 142.399 45.416H143.274C143.432 44.5547 144.102 44.042 145.147 44.042C146.255 44.042 146.904 44.6572 146.904 45.6826V46.2979L144.689 46.4346C143.049 46.5439 142.14 47.2822 142.14 48.499C142.14 49.7432 143.097 50.584 144.498 50.584ZM149.386 50.4678H150.288V43.3584H149.386V50.4678ZM149.837 41.9229C150.172 41.9229 150.445 41.6562 150.445 41.3213C150.445 40.9932 150.172 40.7266 149.837 40.7266C149.509 40.7266 149.235 40.9932 149.235 41.3213C149.235 41.6562 149.509 41.9229 149.837 41.9229ZM151.908 50.4678H152.811V46.2568C152.811 44.9375 153.638 44.0488 154.868 44.0488C156.058 44.0488 156.741 44.7598 156.741 46.0039V50.4678H157.644V45.8604C157.644 44.2471 156.687 43.2422 155.128 43.2422C153.979 43.2422 153.146 43.8096 152.783 44.6709H152.763V43.3584H151.908V50.4678Z" fill="white"/>
<path d="M489.5 92.5C496.3 91.7 498.667 91.1667 499 91L496 99" stroke="white"/>
</svg>
