<svg width="19" height="20" viewBox="0 0 19 20" fill="none" xmlns="http://www.w3.org/2000/svg">
<path d="M14.5127 3.3919C14.2917 3.3911 14.0754 3.45596 13.8913 3.57825C13.7072 3.70055 13.5635 3.87476 13.4786 4.0788C13.3936 4.28284 13.3712 4.50751 13.4141 4.72432C13.4571 4.94113 13.5634 5.14031 13.7197 5.29659C13.876 5.45287 14.0751 5.55922 14.292 5.60214C14.5088 5.64506 14.7334 5.62263 14.9375 5.53768C15.1415 5.45273 15.3157 5.30909 15.438 5.12499C15.5603 4.94089 15.6252 4.72462 15.6244 4.5036C15.6244 4.20876 15.5072 3.926 15.2988 3.71751C15.0903 3.50903 14.8075 3.3919 14.5127 3.3919ZM9.56863 4.81892C8.64322 4.81812 7.73837 5.09186 6.96858 5.60549C6.1988 6.11912 5.59868 6.84957 5.24417 7.70438C4.88966 8.5592 4.79669 9.49997 4.97704 10.4076C5.15738 11.3153 5.60292 12.1491 6.25729 12.8034C6.91166 13.4578 7.74543 13.9034 8.6531 14.0837C9.56077 14.264 10.5015 14.1711 11.3564 13.8166C12.2112 13.4621 12.9416 12.8619 13.4552 12.0922C13.9689 11.3224 14.2426 10.4175 14.2418 9.49211C14.2397 8.25336 13.7466 7.06596 12.8707 6.19003C11.9948 5.3141 10.8074 4.82106 9.56863 4.81892ZM9.56863 12.4998C8.976 12.5006 8.39645 12.3256 7.9033 11.9969C7.41016 11.6682 7.02559 11.2007 6.79824 10.6534C6.5709 10.1061 6.511 9.50366 6.62613 8.92232C6.74125 8.34098 7.02623 7.80685 7.445 7.38751C7.86377 6.96817 8.39752 6.68248 8.9787 6.56656C9.55989 6.45065 10.1624 6.50974 10.71 6.73634C11.2576 6.96295 11.7257 7.34689 12.055 7.83959C12.3843 8.33229 12.5601 8.9116 12.5601 9.50423C12.5569 10.2959 12.2405 11.0541 11.6799 11.6131C11.1194 12.1722 10.3603 12.4866 9.56863 12.4876V12.4998Z" fill="black"/>
<path d="M13.2757 19.0038H5.69998C4.95004 19.0028 4.20766 18.854 3.51527 18.5659C2.82287 18.2778 2.19404 17.8561 1.66469 17.3248C1.13534 16.7936 0.715865 16.1633 0.430226 15.4699C0.144588 14.7765 -0.00161172 14.0336 -1.76208e-05 13.2836V5.70386C0.0021212 4.19279 0.603341 2.74422 1.67183 1.67572C2.74033 0.607231 4.1889 0.00601077 5.69998 0.00387195H13.2757C14.026 0.00174577 14.7693 0.147553 15.4632 0.432953C16.1571 0.718353 16.7879 1.13775 17.3195 1.66715C17.8512 2.19654 18.2733 2.82556 18.5616 3.51822C18.8499 4.21088 18.9989 4.95359 19 5.70386V13.2836C19.0016 14.0356 18.8546 14.7805 18.5674 15.4755C18.2803 16.1705 17.8586 16.8019 17.3267 17.3334C16.7948 17.865 16.1631 18.2862 15.4679 18.5728C14.7727 18.8595 14.0277 19.006 13.2757 19.0038ZM5.69998 1.79068C4.66246 1.79175 3.66775 2.20437 2.93412 2.938C2.20048 3.67164 1.78786 4.66635 1.78679 5.70386V13.2836C1.78786 14.3211 2.20048 15.3159 2.93412 16.0495C3.66775 16.7831 4.66246 17.1958 5.69998 17.1968H13.2757C14.3139 17.1968 15.3097 16.7847 16.0442 16.0509C16.7787 15.3172 17.1919 14.3218 17.1929 13.2836V5.70386C17.1919 4.66565 16.7787 3.67033 16.0442 2.93658C15.3097 2.20283 14.3139 1.79068 13.2757 1.79068H5.69998Z" fill="black"/>
</svg>
