<svg width="31" height="31" viewBox="0 0 31 31" fill="none" xmlns="http://www.w3.org/2000/svg">
<path d="M11.138 21.6209C5.35811 21.6209 0.655216 16.918 0.655216 11.1381C0.655216 5.35823 5.35811 0.655334 11.138 0.655334C16.9178 0.655334 21.6207 5.35823 21.6207 11.1381C21.6207 16.918 16.9178 21.6209 11.138 21.6209ZM11.138 2.86223C6.57411 2.86223 2.86211 6.57423 2.86211 11.1381C2.86211 15.702 6.57411 19.414 11.138 19.414C15.7018 19.414 19.4138 15.702 19.4138 11.1381C19.4138 6.57423 15.7018 2.86223 11.138 2.86223Z" fill="black"/>
<path d="M27.5948 24.4745L19.5175 16.3972C19.3918 16.2747 19.2522 16.1673 19.1015 16.0772C18.3387 17.304 17.3038 18.3389 16.077 19.1018C16.1664 19.2496 16.269 19.3909 16.397 19.5178L24.4742 27.595C24.9057 28.0265 25.4695 28.2416 26.0345 28.2416C26.5995 28.2416 27.1633 28.0265 27.5948 27.595C28.0085 27.1811 28.2409 26.6199 28.2409 26.0347C28.2409 25.4495 28.0085 24.8883 27.5948 24.4745Z" fill="black"/>
</svg>
