<svg width="26" height="19" viewBox="0 0 26 19" fill="none" xmlns="http://www.w3.org/2000/svg">
<path d="M19.5922 2.1375C16.9121 2.1375 14.8316 3.876 13.9872 6.74183C12.6994 4.80806 11.7198 2.48583 11.1509 0.528834H8.26289V8.02856C8.26078 9.51056 7.0585 10.7128 5.57439 10.7149C4.09028 10.7128 2.89011 9.5095 2.888 8.02856V0.527779H0V8.0275C0 11.1002 2.50272 13.6198 5.57544 13.6198C8.65028 13.6198 11.1519 11.1002 11.1519 8.0275V6.77245C11.7103 7.93989 12.3996 9.12422 13.2356 10.1703L11.4686 18.4722H14.421L15.7014 12.4503C16.8234 13.167 18.1133 13.6209 19.5922 13.6209C22.7588 13.6209 25.3333 11.0348 25.3333 7.87339C25.3333 4.70883 22.7588 2.1375 19.5922 2.1375ZM19.5922 10.7213C18.4289 10.7213 17.3386 10.2283 16.3474 9.42611L16.5881 8.29244L16.5965 8.24811C16.815 7.04161 17.4927 5.02022 19.5932 5.02022C21.1681 5.02022 22.4464 6.2985 22.4464 7.87022C22.4453 9.44195 21.1671 10.7213 19.5922 10.7213Z" fill="black"/>
</svg>
