<svg width="19" height="19" viewBox="0 0 19 19" fill="none" xmlns="http://www.w3.org/2000/svg">
<path d="M6.61618 18.9869C6.61618 15.2183 6.65114 11.4497 6.61618 7.6811C6.61618 6.96848 6.79972 6.74989 7.49016 6.80672C8.1269 6.86356 8.76744 6.86356 9.40418 6.80672C10.4311 6.71054 11.1259 6.8723 10.6802 8.09206C10.9861 8.30192 11.0647 8.09206 11.1784 7.98277C11.8229 7.29076 12.6632 6.812 13.587 6.61045C14.5107 6.40889 15.4739 6.49414 16.348 6.85481C17.9998 7.51934 18.9699 9.08886 18.9699 11.0868V18.9869H15.1462C15.1462 17.4961 15.1462 16.0052 15.1025 14.5144C15.0807 13.4914 15.1987 12.4596 14.9627 11.4541C14.7792 10.6671 14.3859 10.0507 13.5818 9.86269C13.2031 9.75468 12.802 9.75259 12.4222 9.85664C12.0424 9.9607 11.6983 10.1669 11.4274 10.4529C11.18 10.7323 10.991 11.0584 10.8717 11.4121C10.7523 11.7658 10.7051 12.1398 10.7326 12.5121C10.7326 14.698 10.6889 16.8359 10.6671 19L6.61618 18.9869ZM0.214268 18.9869C0.214268 15.2227 0.240487 11.4628 0.214268 7.70296C0.214268 7.03843 0.336625 6.74989 1.08825 6.82858C1.97323 6.87667 2.86017 6.87667 3.74515 6.82858C4.18214 6.82858 4.37442 6.91165 4.37005 7.40567C4.32635 11.2704 4.30887 15.1352 4.28702 19L0.214268 18.9869ZM2.30745 0.00401549C2.59871 -0.0136707 2.89056 0.027189 3.16578 0.124184C3.441 0.221178 3.69401 0.372343 3.90989 0.568757C4.12576 0.765171 4.30013 1.00286 4.42269 1.26778C4.54525 1.53271 4.61353 1.81952 4.6235 2.11128C4.65846 3.33542 3.61842 4.27538 2.24627 4.26226C1.95475 4.27721 1.66326 4.23225 1.38977 4.13014C1.11629 4.02804 0.866614 3.87096 0.656151 3.66859C0.445687 3.46622 0.278899 3.22286 0.166072 2.95352C0.0532459 2.68417 -0.00322525 2.39456 0.000142207 2.10254C0.000142207 0.878399 0.974631 0.00401549 2.30745 0.00401549Z" fill="black"/>
</svg>
