<svg width="34" height="35" viewBox="0 0 34 35" fill="none" xmlns="http://www.w3.org/2000/svg">
<g clip-path="url(#clip0_396_147)">
<path d="M32.7509 20.2594C33.8093 11.47 32.2423 5.92105 29.4159 3.41125L29.4174 3.4098C24.8555 -0.876246 9.44904 -1.51062 3.9913 3.6023C1.54035 6.10334 0.677043 9.77396 0.582434 14.3181C0.487825 18.8638 0.375477 27.379 8.41869 29.689H8.42608L8.41869 33.2167C8.41869 33.2167 8.364 34.6458 9.28939 34.9331C10.3478 35.2715 10.8268 34.6079 14.1189 30.7288C19.6239 31.1998 23.8517 30.1206 24.3322 29.9631C25.4438 29.5956 31.7338 28.7746 32.7509 20.2594ZM14.6614 28.2467C14.6614 28.2467 11.1771 32.5327 10.0936 33.6454C9.73878 34.0071 9.35 33.9735 9.35591 33.256C9.35591 32.785 9.38252 27.3994 9.38252 27.3994C2.5633 25.4715 2.96539 18.2206 3.0393 14.4275C3.11322 10.6329 3.81687 7.52521 5.89235 5.4325C10.6804 1.00355 24.1873 1.99375 27.6287 5.18459C31.8358 8.86396 30.3383 19.259 30.3472 19.6133C29.4824 26.7213 24.3854 27.1719 23.4482 27.4796C23.0476 27.6108 19.3297 28.5544 14.6614 28.2467Z" fill="black"/>
<path d="M16.589 6.2666C16.0198 6.2666 16.0198 7.1416 16.589 7.14889C21.0045 7.18244 24.641 10.2187 24.681 15.7881C24.681 16.3758 25.5531 16.3685 25.5457 15.7808H25.5443C25.497 9.77973 21.5264 6.30014 16.589 6.2666Z" fill="black"/>
<path d="M22.3971 14.8658C22.3838 15.4463 23.2545 15.474 23.2619 14.8863C23.3343 11.5773 21.2662 8.85167 17.3799 8.56438C16.8108 8.52355 16.7516 9.40584 17.3193 9.44667C20.6897 9.69896 22.4651 11.9681 22.3971 14.8658ZM21.4658 18.6298C20.7356 18.2127 19.992 18.4723 19.6845 18.8821L19.0415 19.7031C18.7148 20.1202 18.1042 20.0648 18.1042 20.0648C13.6488 18.9025 12.4573 14.3029 12.4573 14.3029C12.4573 14.3029 12.4026 13.6802 12.8106 13.3463L13.6148 12.69C14.0169 12.375 14.2711 11.6167 13.8616 10.8715C12.7677 8.92167 12.033 8.24938 11.659 7.73313C11.2658 7.2475 10.6745 7.13813 10.0596 7.46625H10.0462C8.76755 8.20417 7.36764 9.58521 7.81555 11.0071C8.57981 12.5063 9.98416 17.2852 14.4603 20.896C16.5639 22.6038 19.8929 24.3538 21.3062 24.7577L21.3195 24.7781C22.712 25.236 24.0661 23.801 24.7889 22.5017V22.4915C25.1097 21.8629 25.0033 21.2679 24.5347 20.8785C23.7039 20.0794 22.4503 19.1971 21.4658 18.6298Z" fill="black"/>
<path d="M17.9889 11.8188C19.4095 11.9004 20.0984 12.6325 20.1723 14.1361C20.1989 14.7238 21.0637 14.6829 21.037 14.0952C20.9424 12.1323 19.9047 11.0386 18.0362 10.9365C17.4671 10.9029 17.4138 11.7852 17.9889 11.8188Z" fill="black"/>
</g>
<defs>
<clipPath id="clip0_396_147">
<rect width="34" height="35" fill="white"/>
</clipPath>
</defs>
</svg>
