<svg width="35" height="33" viewBox="0 0 35 33" fill="none" xmlns="http://www.w3.org/2000/svg">
<path d="M32.445 0.366286L1.36209 13.6731C1.36209 13.6731 -0.107471 14.2225 0.00627849 15.2359C0.12309 16.2512 1.32227 16.7156 1.32227 16.7156L9.14343 19.5875C9.14343 19.5875 11.5042 28.0351 11.9688 29.6425C12.4334 31.2455 12.8062 31.2833 12.8062 31.2833C13.2388 31.4885 13.6322 31.1618 13.6322 31.1618L18.6853 26.1356L26.5607 32.7247C28.6908 33.7385 29.4661 31.6262 29.4661 31.6262L35 1.17045C35 -0.858189 32.445 0.366286 32.445 0.366286ZM26.9422 29.1768L18.5168 22.1296L15.9023 24.7293L16.4772 19.1983L27.7078 8.25L12.3993 17.5985L5.60888 15.1054L31.5162 4.01361L26.9422 29.1768Z" fill="black"/>
</svg>
