<svg width="33" height="33" viewBox="0 0 33 33" fill="none" xmlns="http://www.w3.org/2000/svg">
<path d="M23.7909 19.9396C23.4699 19.7764 21.3835 18.7976 21.0625 18.6345C20.7415 18.4714 20.4205 18.4714 20.0995 18.7977C19.7785 19.1239 19.1366 20.1027 18.8156 20.4289C18.6551 20.7552 18.3341 20.7552 18.0131 20.5921C16.8896 20.1027 15.7662 19.4502 14.8032 18.6345C14.0007 17.8189 13.1982 16.8401 12.5563 15.8613C12.3958 15.5351 12.5563 15.2088 12.7168 15.0457C12.8773 14.8825 13.0378 14.5563 13.3587 14.3932C13.5192 14.23 13.6797 13.9038 13.6797 13.7406C13.8402 13.5775 13.8402 13.2513 13.6797 13.0881C13.5192 12.925 12.7168 10.9674 12.3958 10.1518C12.2353 9.00988 11.9143 9.00988 11.5933 9.00988C11.4328 9.00988 11.1118 9.00988 10.7908 9.00988C10.4698 9.00988 9.98835 9.33614 9.82785 9.49927C8.86488 10.478 8.3834 11.62 8.3834 12.925C8.54389 14.3932 9.02538 15.8613 9.98835 17.1664C11.7538 19.7764 14.0007 21.8971 16.7291 23.2021C17.5316 23.5284 18.1736 23.8547 18.9761 24.0178C19.7785 24.3441 20.581 24.3441 21.544 24.1809C22.6675 24.0178 23.6304 23.2021 24.2724 22.2234C24.5934 21.5709 24.5934 20.9183 24.4329 20.2658C24.4329 20.2658 24.1119 20.1027 23.7909 19.9396ZM27.8033 5.09478C21.544 -1.26727 11.4328 -1.26727 5.17349 5.09478C0.0376524 10.3149 -0.925318 18.3083 2.60557 24.6703L0.358643 32.9899L8.86488 30.7061C11.2723 32.0111 13.8402 32.6637 16.4081 32.6637C25.2354 32.6637 32.2972 25.486 32.2972 16.5138C32.4577 12.2725 30.6922 8.19424 27.8033 5.09478ZM23.4699 27.9329C21.3835 29.2379 18.9761 30.0536 16.4081 30.0536C14.0007 30.0536 11.7538 29.4011 9.66736 28.2592L9.18587 27.9329L4.21052 29.2379L5.49448 24.3441L5.17349 23.8547C1.32161 17.3295 3.24755 9.17301 9.50686 5.09478C15.7662 1.01654 23.7909 3.13723 27.6428 9.33614C31.4947 15.6982 29.7292 24.0178 23.4699 27.9329Z" fill="black"/>
</svg>
