<svg width="32" height="32" viewBox="0 0 32 32" fill="none" xmlns="http://www.w3.org/2000/svg">
<g clip-path="url(#clip0_396_174)">
<path d="M12.552 28.0367C11.7307 28.5127 11.5747 28.5687 10.8027 28.842C10.616 28.906 10.3333 29.0193 10.9093 29.35L14.776 31.6673C15.1453 31.8847 15.572 31.998 15.992 31.998L15.9947 32.0007C16.42 32.0007 16.84 31.886 17.2093 31.67L28.7853 24.9007C29.5373 24.4567 30.0013 23.6367 30.0013 22.7607V9.23C30.0013 8.34733 29.5387 7.52733 28.7853 7.09L17.2093 0.314C16.4827 -0.104667 15.5107 -0.104667 14.7773 0.314L3.21467 7.08333C2.464 7.522 2 8.34733 2 9.22333V22.754C2 23.6367 2.46267 24.4567 3.21467 24.894L6.248 26.666C7.71467 27.4033 8.24 27.4033 8.91067 27.4033C11.0853 27.4033 12.3387 26.07 12.3387 23.746V10.3807C12.3387 10.1913 12.1827 10.0447 12 10.0447H10.5333C10.3453 10.0447 10.1947 10.19 10.1947 10.3807V23.7393C10.1947 24.774 9.14133 25.7967 7.41733 24.9273L4.24667 23.0727C4.136 23.0153 4.06667 22.8887 4.06667 22.7607V9.23C4.06667 9.098 4.136 8.97 4.248 8.906L15.8107 2.13667C15.916 2.07267 16.0613 2.07267 16.168 2.13667L27.7373 8.89933C27.8493 8.96867 27.9187 9.09 27.9187 9.22333V22.7607C27.9187 22.886 27.8507 23.014 27.744 23.078L16.168 29.8473C16.068 29.9113 15.9173 29.9113 15.8107 29.8473L12.84 28.0633C12.752 28.006 12.64 27.986 12.552 28.0367Z" fill="black"/>
<path d="M19.5652 20.932C16.5012 20.932 15.8292 20.1507 15.6052 18.608C15.5798 18.4427 15.4425 18.3227 15.2732 18.3227H13.7758C13.5878 18.3227 13.4438 18.4747 13.4438 18.6587C13.4438 20.6333 14.5025 22.9893 19.5718 22.9893C23.2305 22.9827 25.3385 21.5173 25.3385 18.964L25.3345 18.9653C25.3345 16.432 23.6425 15.7587 20.0892 15.2827C16.4918 14.8 16.1292 14.552 16.1292 13.7013C16.1292 12.9973 16.4372 12.0573 19.0998 12.0573C21.4758 12.0573 22.3532 12.5773 22.7158 14.2027C22.7465 14.356 22.8852 14.4693 23.0425 14.4693H24.5465C24.6398 14.4693 24.7278 14.432 24.7905 14.3613C24.8532 14.2907 24.8838 14.196 24.8785 14.1013C24.6465 11.3013 22.8105 10 19.0998 10C15.7972 10 13.8292 11.4107 13.8292 13.7773C13.8292 16.3427 15.7905 17.0547 18.9558 17.3707C22.7478 17.7467 23.0412 18.3107 23.0412 19.0667C23.0438 20.3747 22.0038 20.932 19.5652 20.932Z" fill="black"/>
</g>
<defs>
<clipPath id="clip0_396_174">
<rect width="32" height="32" fill="white"/>
</clipPath>
</defs>
</svg>
