<svg width="15" height="15" viewBox="0 0 15 15" fill="none" xmlns="http://www.w3.org/2000/svg">
<path d="M3.48604 12.6944C3.43168 12.694 3.37914 12.6748 3.33729 12.6401C2.2742 11.7802 1.50387 10.6119 1.13242 9.29599C0.760967 7.98009 0.806662 6.58139 1.26321 5.29254C1.71976 4.0037 2.5647 2.88811 3.68165 2.09945C4.7986 1.31078 6.13261 0.887844 7.49993 0.888884C8.51101 0.885888 9.50906 1.11702 10.4159 1.56416C10.4719 1.59205 10.5146 1.64104 10.5345 1.70037C10.5544 1.75969 10.55 1.8245 10.5222 1.88055C10.5086 1.90849 10.4896 1.93348 10.4663 1.95407C10.443 1.97466 10.4159 1.99046 10.3865 2.00055C10.3571 2.01064 10.326 2.01483 10.295 2.01287C10.264 2.01092 10.2337 2.00286 10.2058 1.98916C8.83034 1.31374 7.25204 1.17712 5.78101 1.60615C4.30998 2.03518 3.05258 2.99885 2.2559 4.30777C1.48314 5.57775 1.19747 7.08499 1.45193 8.54965C1.70639 10.0143 2.48369 11.3369 3.63951 12.2718C3.66359 12.2915 3.68356 12.3157 3.69826 12.3431C3.71296 12.3704 3.7221 12.4005 3.72518 12.4314C3.72825 12.4623 3.72518 12.4936 3.71615 12.5233C3.70712 12.553 3.69231 12.5807 3.67257 12.6047C3.65033 12.6329 3.62198 12.6556 3.58966 12.6711C3.55734 12.6867 3.5219 12.6946 3.48604 12.6944ZM7.49993 14.1111C6.44499 14.114 5.40497 13.8621 4.46826 13.3768C4.41253 13.348 4.37052 13.2982 4.35148 13.2385C4.33244 13.1787 4.33793 13.1138 4.36673 13.0581C4.39554 13.0023 4.4453 12.9603 4.50508 12.9413C4.56486 12.9222 4.62975 12.9277 4.68548 12.9565C5.87533 13.5707 7.23334 13.779 8.55256 13.5497C9.87178 13.3204 11.0798 12.666 11.9926 11.6863C12.9054 10.7067 13.4729 9.45546 13.6085 8.12335C13.7442 6.79123 13.4406 5.4513 12.744 4.30777C12.3771 3.70762 11.9108 3.17427 11.3651 2.73055C11.3168 2.69125 11.286 2.63447 11.2793 2.57256C11.2727 2.51065 11.2908 2.44863 11.3297 2.39999C11.3491 2.37574 11.3732 2.35557 11.4005 2.34066C11.4278 2.32574 11.4578 2.31637 11.4887 2.31308C11.5197 2.30979 11.551 2.31264 11.5808 2.32148C11.6106 2.33032 11.6384 2.34497 11.6626 2.36458C12.2497 2.84211 12.7511 3.41621 13.1453 4.06222C13.7555 5.06449 14.0879 6.2111 14.1085 7.38432C14.129 8.55753 13.8369 9.71507 13.2622 10.7381C12.6875 11.7611 11.8508 12.6127 10.8382 13.2055C9.8255 13.7983 8.67332 14.1108 7.49993 14.1111Z" fill="white"/>
<path d="M7.264 13.875C7.20548 13.8748 7.14911 13.853 7.1058 13.8136C6.21901 13.0184 5.54325 12.0157 5.139 10.8953C4.69061 9.81839 4.45026 8.66633 4.43066 7.49999C4.43326 6.33106 4.67429 5.17495 5.139 4.10236C5.58226 3.00287 6.25245 2.00925 7.1058 1.18638C7.15274 1.14869 7.21231 1.13035 7.27232 1.13511C7.33234 1.13987 7.38826 1.16738 7.42867 1.21201C7.46908 1.25664 7.49091 1.31501 7.48971 1.3752C7.4885 1.43539 7.46435 1.49285 7.42219 1.53583C6.61583 2.31198 5.98189 3.2492 5.56164 4.28652C5.12661 5.30199 4.90249 6.39527 4.90289 7.49999C4.91804 8.60409 5.14238 9.6953 5.564 10.7158C5.94567 11.772 6.58427 12.7165 7.42219 13.4642C7.45742 13.4962 7.48215 13.5381 7.49313 13.5844C7.50411 13.6307 7.50083 13.6793 7.48372 13.7237C7.46662 13.7682 7.43648 13.8064 7.39727 13.8334C7.35806 13.8604 7.3116 13.8749 7.264 13.875Z" fill="white"/>
<path d="M7.73572 13.875C7.68812 13.8749 7.64166 13.8604 7.60245 13.8334C7.56324 13.8064 7.5331 13.7682 7.516 13.7237C7.49889 13.6793 7.49561 13.6308 7.50659 13.5844C7.51757 13.5381 7.5423 13.4962 7.57753 13.4642C8.41545 12.7165 9.05406 11.772 9.43572 10.7158C9.85735 9.69531 10.0817 8.6041 10.0968 7.50001C10.0972 6.39528 9.87311 5.302 9.43808 4.28653C9.01783 3.24922 8.3839 2.312 7.57753 1.53584C7.55244 1.51569 7.53173 1.49062 7.51667 1.46217C7.50162 1.43373 7.49254 1.40251 7.49 1.37042C7.48745 1.33834 7.49149 1.30608 7.50187 1.27561C7.51224 1.24515 7.52874 1.21713 7.55034 1.19327C7.57194 1.16941 7.59819 1.15022 7.62748 1.13688C7.65676 1.12354 7.68847 1.11632 7.72065 1.11568C7.75282 1.11503 7.78479 1.12098 7.81459 1.13314C7.84438 1.1453 7.87138 1.16342 7.89392 1.1864C8.75153 2.00813 9.4258 3.00183 9.87253 4.10237C10.3332 5.17581 10.5702 6.33189 10.5691 7.50001C10.5495 8.66634 10.3091 9.81841 9.86072 10.8953C9.45378 12.0167 8.7747 13.0195 7.88447 13.8136C7.84361 13.8509 7.79097 13.8726 7.73572 13.875Z" fill="white"/>
<path d="M13.8748 7.73609H1.12478C1.06216 7.73609 1.00211 7.71122 0.957827 7.66694C0.913548 7.62266 0.888672 7.5626 0.888672 7.49998C0.888672 7.43736 0.913548 7.3773 0.957827 7.33302C1.00211 7.28874 1.06216 7.26387 1.12478 7.26387H13.8748C13.9374 7.26387 13.9975 7.28874 14.0417 7.33302C14.086 7.3773 14.1109 7.43736 14.1109 7.49998C14.1109 7.5626 14.086 7.62266 14.0417 7.66694C13.9975 7.71122 13.9374 7.73609 13.8748 7.73609ZM12.9303 4.43054H2.06923C2.00661 4.43054 1.94655 4.40566 1.90227 4.36138C1.85799 4.3171 1.83312 4.25704 1.83312 4.19442C1.83312 4.1318 1.85799 4.07175 1.90227 4.02747C1.94655 3.98319 2.00661 3.95831 2.06923 3.95831H12.9303C12.993 3.95831 13.053 3.98319 13.0973 4.02747C13.1416 4.07175 13.1665 4.1318 13.1665 4.19442C13.1665 4.25704 13.1416 4.3171 13.0973 4.36138C13.053 4.40566 12.993 4.43054 12.9303 4.43054ZM12.9303 11.0416H2.06923C2.00661 11.0416 1.94655 11.0168 1.90227 10.9725C1.85799 10.9282 1.83312 10.8682 1.83312 10.8055C1.83312 10.7429 1.85799 10.6829 1.90227 10.6386C1.94655 10.5943 2.00661 10.5694 2.06923 10.5694H12.9303C12.993 10.5694 13.053 10.5943 13.0973 10.6386C13.1416 10.6829 13.1665 10.7429 13.1665 10.8055C13.1665 10.8682 13.1416 10.9282 13.0973 10.9725C13.053 11.0168 12.993 11.0416 12.9303 11.0416Z" fill="white"/>
<path d="M7.49978 13.875C7.43716 13.875 7.37711 13.8501 7.33283 13.8058C7.28855 13.7616 7.26367 13.7015 7.26367 13.6389V1.36111C7.26367 1.29849 7.28855 1.23843 7.33283 1.19416C7.37711 1.14988 7.43716 1.125 7.49978 1.125C7.5624 1.125 7.62246 1.14988 7.66674 1.19416C7.71102 1.23843 7.7359 1.29849 7.7359 1.36111V13.6389C7.7359 13.7015 7.71102 13.7616 7.66674 13.8058C7.62246 13.8501 7.5624 13.875 7.49978 13.875Z" fill="white"/>
</svg>
