<svg width="1011" height="183" viewBox="0 0 1011 183" fill="none" xmlns="http://www.w3.org/2000/svg">
<path d="M1.85254 55.6035H0.922852V62.0225C0.922852 64.1484 2.36523 65.625 4.7373 65.625C7.10938 65.625 8.55859 64.1484 8.55859 62.0225V55.6035H7.62207V61.9678C7.62207 63.6221 6.54883 64.7568 4.7373 64.7568C2.93262 64.7568 1.85254 63.6221 1.85254 61.9678V55.6035ZM10.2539 65.4678H11.1562V61.2568C11.1562 59.9375 11.9834 59.0488 13.2139 59.0488C14.4033 59.0488 15.0869 59.7598 15.0869 61.0039V65.4678H15.9893V60.8604C15.9893 59.2471 15.0322 58.2422 13.4736 58.2422C12.3252 58.2422 11.4912 58.8096 11.1289 59.6709H11.1084V58.3584H10.2539V65.4678ZM20.2002 65.584C21.3486 65.584 22.2578 64.9209 22.6611 63.9639H22.6816V65.4678H23.543V55.6035H22.6338V59.8213H22.6133C22.2373 58.8984 21.3281 58.2422 20.1797 58.2422C18.3955 58.2422 17.1582 59.6982 17.1582 61.9131C17.1582 64.1211 18.4023 65.584 20.2002 65.584ZM20.3574 59.042C21.7109 59.042 22.6406 60.1973 22.6406 61.9131C22.6406 63.6357 21.7109 64.7842 20.3574 64.7842C18.9902 64.7842 18.0879 63.6494 18.0879 61.9131C18.0879 60.1768 18.9902 59.042 20.3574 59.042ZM27.9795 59.0352C29.2646 59.0352 30.1191 60.0127 30.1396 61.4141H25.751C25.8262 60.0127 26.708 59.0352 27.9795 59.0352ZM30.085 63.4512C29.8867 64.2305 29.1416 64.791 28.0684 64.791C26.6533 64.791 25.7441 63.793 25.7441 62.1865V62.1318H31.0693V61.749C31.0693 59.6299 29.8799 58.2422 27.9932 58.2422C26.0654 58.2422 24.8145 59.7256 24.8145 61.9336C24.8145 64.1895 26.0518 65.584 28.0479 65.584C29.6133 65.584 30.7686 64.6816 30.9805 63.4512H30.085ZM32.2793 65.4678H33.1816V61.0381C33.1816 59.8896 33.8242 59.1035 34.8359 59.1035C35.1436 59.1035 35.3965 59.1514 35.5127 59.2061V58.3174C35.4033 58.29 35.1914 58.2422 34.9521 58.2422C34.0771 58.2422 33.4141 58.7549 33.1543 59.623H33.1338V58.3584H32.2793V65.4678ZM36.3057 60.2588C36.3057 61.2021 36.9209 61.8105 38.2061 62.1318L39.3613 62.4189C40.3115 62.6514 40.667 62.9795 40.667 63.5947C40.667 64.3398 39.9629 64.8389 38.8965 64.8389C37.8301 64.8389 37.1328 64.3193 37.0029 63.4785H36.1006C36.2168 64.7295 37.3174 65.584 38.8418 65.584C40.4482 65.584 41.5762 64.7295 41.5762 63.5264C41.5762 62.5078 41.043 61.9883 39.6211 61.6328L38.5684 61.3799C37.6182 61.1475 37.2012 60.792 37.2012 60.2109C37.2012 59.5 37.8643 58.9873 38.835 58.9873C39.8193 58.9873 40.4688 59.5068 40.5781 60.3477H41.4463C41.3574 59.0967 40.3184 58.2422 38.8623 58.2422C37.3584 58.2422 36.3057 59.083 36.3057 60.2588ZM43.1826 56.5811V58.3584H42.123V59.1104H43.1826V63.7178C43.1826 65.0029 43.6611 65.5088 44.8506 65.5088C45.042 65.5088 45.4248 65.4883 45.5205 65.4678V64.6953C45.4658 64.709 45.124 64.7227 45.0283 64.7227C44.3721 64.7227 44.085 64.4082 44.085 63.6768V59.1104H45.4863V58.3584H44.085V56.5811H43.1826ZM48.8564 64.8047C47.8926 64.8047 47.2295 64.2715 47.2295 63.499C47.2295 62.7129 47.8516 62.2275 48.9727 62.1523L51.0781 62.0088V62.7949C51.0781 63.9229 50.1006 64.8047 48.8564 64.8047ZM48.6719 65.584C49.7314 65.584 50.7021 64.9961 51.0986 64.1143H51.1191V65.4678H51.9805V60.6006C51.9805 59.1514 50.9619 58.2422 49.3418 58.2422C47.7217 58.2422 46.6758 59.1445 46.5732 60.416H47.4482C47.6055 59.5547 48.2754 59.042 49.3213 59.042C50.4287 59.042 51.0781 59.6572 51.0781 60.6826V61.2979L48.8633 61.4346C47.2227 61.5439 46.3135 62.2822 46.3135 63.499C46.3135 64.7432 47.2705 65.584 48.6719 65.584ZM53.498 65.4678H54.4004V61.2568C54.4004 59.9375 55.2275 59.0488 56.458 59.0488C57.6475 59.0488 58.3311 59.7598 58.3311 61.0039V65.4678H59.2334V60.8604C59.2334 59.2471 58.2764 58.2422 56.7178 58.2422C55.5693 58.2422 54.7354 58.8096 54.373 59.6709H54.3525V58.3584H53.498V65.4678ZM63.4443 65.584C64.5928 65.584 65.502 64.9209 65.9053 63.9639H65.9258V65.4678H66.7871V55.6035H65.8779V59.8213H65.8574C65.4814 58.8984 64.5723 58.2422 63.4238 58.2422C61.6396 58.2422 60.4023 59.6982 60.4023 61.9131C60.4023 64.1211 61.6465 65.584 63.4443 65.584ZM63.6016 59.042C64.9551 59.042 65.8848 60.1973 65.8848 61.9131C65.8848 63.6357 64.9551 64.7842 63.6016 64.7842C62.2344 64.7842 61.332 63.6494 61.332 61.9131C61.332 60.1768 62.2344 59.042 63.6016 59.042ZM71.6748 56.5811V58.3584H70.6152V59.1104H71.6748V63.7178C71.6748 65.0029 72.1533 65.5088 73.3428 65.5088C73.5342 65.5088 73.917 65.4883 74.0127 65.4678V64.6953C73.958 64.709 73.6162 64.7227 73.5205 64.7227C72.8643 64.7227 72.5771 64.4082 72.5771 63.6768V59.1104H73.9785V58.3584H72.5771V56.5811H71.6748ZM75.3252 65.4678H76.2344V61.2842C76.2344 59.9443 77.0615 59.0488 78.3398 59.0488C79.543 59.0488 80.2334 59.7939 80.2334 61.0244V65.4678H81.1426V60.874C81.1426 59.2812 80.1582 58.2422 78.5996 58.2422C77.4648 58.2422 76.6172 58.7959 76.2549 59.6709H76.2344V55.6035H75.3252V65.4678ZM85.4697 59.0352C86.7549 59.0352 87.6094 60.0127 87.6299 61.4141H83.2412C83.3164 60.0127 84.1982 59.0352 85.4697 59.0352ZM87.5752 63.4512C87.377 64.2305 86.6318 64.791 85.5586 64.791C84.1436 64.791 83.2344 63.793 83.2344 62.1865V62.1318H88.5596V61.749C88.5596 59.6299 87.3701 58.2422 85.4834 58.2422C83.5557 58.2422 82.3047 59.7256 82.3047 61.9336C82.3047 64.1895 83.542 65.584 85.5381 65.584C87.1035 65.584 88.2588 64.6816 88.4707 63.4512H87.5752ZM98.4238 60.6074C98.2461 59.3359 97.1729 58.2422 95.498 58.2422C93.5635 58.2422 92.2852 59.6709 92.2852 61.9131C92.2852 64.1895 93.5635 65.584 95.5049 65.584C97.0771 65.584 98.2324 64.627 98.4307 63.2666H97.5352C97.3301 64.1895 96.585 64.7842 95.5117 64.7842C94.124 64.7842 93.208 63.6973 93.208 61.9131C93.208 60.1562 94.1172 59.042 95.5049 59.042C96.626 59.042 97.3438 59.7324 97.5352 60.6074H98.4238ZM99.6201 65.4678H100.522V55.6035H99.6201V65.4678ZM102.204 65.4678H103.106V58.3584H102.204V65.4678ZM102.655 56.9229C102.99 56.9229 103.264 56.6562 103.264 56.3213C103.264 55.9932 102.99 55.7266 102.655 55.7266C102.327 55.7266 102.054 55.9932 102.054 56.3213C102.054 56.6562 102.327 56.9229 102.655 56.9229ZM107.536 59.0352C108.821 59.0352 109.676 60.0127 109.696 61.4141H105.308C105.383 60.0127 106.265 59.0352 107.536 59.0352ZM109.642 63.4512C109.443 64.2305 108.698 64.791 107.625 64.791C106.21 64.791 105.301 63.793 105.301 62.1865V62.1318H110.626V61.749C110.626 59.6299 109.437 58.2422 107.55 58.2422C105.622 58.2422 104.371 59.7256 104.371 61.9336C104.371 64.1895 105.608 65.584 107.604 65.584C109.17 65.584 110.325 64.6816 110.537 63.4512H109.642ZM111.836 65.4678H112.738V61.2568C112.738 59.9375 113.565 59.0488 114.796 59.0488C115.985 59.0488 116.669 59.7598 116.669 61.0039V65.4678H117.571V60.8604C117.571 59.2471 116.614 58.2422 115.056 58.2422C113.907 58.2422 113.073 58.8096 112.711 59.6709H112.69V58.3584H111.836V65.4678ZM119.485 56.5811V58.3584H118.426V59.1104H119.485V63.7178C119.485 65.0029 119.964 65.5088 121.153 65.5088C121.345 65.5088 121.728 65.4883 121.823 65.4678V64.6953C121.769 64.709 121.427 64.7227 121.331 64.7227C120.675 64.7227 120.388 64.4082 120.388 63.6768V59.1104H121.789V58.3584H120.388V56.5811H119.485ZM123.977 58.9395V55.6035H123.136V58.9395H123.977ZM125.46 60.2588C125.46 61.2021 126.075 61.8105 127.36 62.1318L128.516 62.4189C129.466 62.6514 129.821 62.9795 129.821 63.5947C129.821 64.3398 129.117 64.8389 128.051 64.8389C126.984 64.8389 126.287 64.3193 126.157 63.4785H125.255C125.371 64.7295 126.472 65.584 127.996 65.584C129.603 65.584 130.73 64.7295 130.73 63.5264C130.73 62.5078 130.197 61.9883 128.775 61.6328L127.723 61.3799C126.772 61.1475 126.355 60.792 126.355 60.2109C126.355 59.5 127.019 58.9873 127.989 58.9873C128.974 58.9873 129.623 59.5068 129.732 60.3477H130.601C130.512 59.0967 129.473 58.2422 128.017 58.2422C126.513 58.2422 125.46 59.083 125.46 60.2588ZM138.147 58.2422C136.992 58.2422 136.09 58.9189 135.7 59.8623H135.673V58.3584H134.818V67.8193H135.721V64.0049H135.748C136.124 64.9277 137.02 65.584 138.168 65.584C139.952 65.584 141.176 64.1279 141.176 61.9131C141.176 59.7051 139.945 58.2422 138.147 58.2422ZM137.99 64.7842C136.644 64.7842 135.721 63.6289 135.721 61.9131C135.721 60.2041 136.644 59.042 137.99 59.042C139.364 59.042 140.253 60.1836 140.253 61.9131C140.253 63.6494 139.364 64.7842 137.99 64.7842ZM144.683 64.8047C143.719 64.8047 143.056 64.2715 143.056 63.499C143.056 62.7129 143.678 62.2275 144.799 62.1523L146.904 62.0088V62.7949C146.904 63.9229 145.927 64.8047 144.683 64.8047ZM144.498 65.584C145.558 65.584 146.528 64.9961 146.925 64.1143H146.945V65.4678H147.807V60.6006C147.807 59.1514 146.788 58.2422 145.168 58.2422C143.548 58.2422 142.502 59.1445 142.399 60.416H143.274C143.432 59.5547 144.102 59.042 145.147 59.042C146.255 59.042 146.904 59.6572 146.904 60.6826V61.2979L144.689 61.4346C143.049 61.5439 142.14 62.2822 142.14 63.499C142.14 64.7432 143.097 65.584 144.498 65.584ZM149.386 65.4678H150.288V58.3584H149.386V65.4678ZM149.837 56.9229C150.172 56.9229 150.445 56.6562 150.445 56.3213C150.445 55.9932 150.172 55.7266 149.837 55.7266C149.509 55.7266 149.235 55.9932 149.235 56.3213C149.235 56.6562 149.509 56.9229 149.837 56.9229ZM151.908 65.4678H152.811V61.2568C152.811 59.9375 153.638 59.0488 154.868 59.0488C156.058 59.0488 156.741 59.7598 156.741 61.0039V65.4678H157.644V60.8604C157.644 59.2471 156.687 58.2422 155.128 58.2422C153.979 58.2422 153.146 58.8096 152.783 59.6709H152.763V58.3584H151.908V65.4678Z" fill="#ffffff"/>
<path d="M450.491 65.4678C452.576 65.4678 453.827 64.4424 453.827 62.7607C453.827 61.3936 452.877 60.4707 451.51 60.3066V60.2588C452.562 60.0674 453.314 59.1309 453.314 58.0371C453.314 56.5811 452.166 55.6035 450.471 55.6035H446.923V65.4678H450.491ZM447.853 56.4307H450.272C451.585 56.4307 452.371 57.0664 452.371 58.1396C452.371 59.3018 451.496 59.9854 449.999 59.9854H447.853V56.4307ZM447.853 64.6406V60.792H450.238C451.94 60.792 452.87 61.4824 452.87 62.7129C452.87 63.9365 451.975 64.6406 450.361 64.6406H447.853ZM457.833 59.0352C459.118 59.0352 459.973 60.0127 459.993 61.4141H455.604C455.68 60.0127 456.562 59.0352 457.833 59.0352ZM459.938 63.4512C459.74 64.2305 458.995 64.791 457.922 64.791C456.507 64.791 455.598 63.793 455.598 62.1865V62.1318H460.923V61.749C460.923 59.6299 459.733 58.2422 457.847 58.2422C455.919 58.2422 454.668 59.7256 454.668 61.9336C454.668 64.1895 455.905 65.584 457.901 65.584C459.467 65.584 460.622 64.6816 460.834 63.4512H459.938ZM465.065 65.4678H465.968V58.3584H465.065V65.4678ZM465.517 56.9229C465.852 56.9229 466.125 56.6562 466.125 56.3213C466.125 55.9932 465.852 55.7266 465.517 55.7266C465.188 55.7266 464.915 55.9932 464.915 56.3213C464.915 56.6562 465.188 56.9229 465.517 56.9229ZM467.588 65.4678H468.49V61.2568C468.49 59.9375 469.317 59.0488 470.548 59.0488C471.737 59.0488 472.421 59.7598 472.421 61.0039V65.4678H473.323V60.8604C473.323 59.2471 472.366 58.2422 470.808 58.2422C469.659 58.2422 468.825 58.8096 468.463 59.6709H468.442V58.3584H467.588V65.4678ZM474.704 60.2588C474.704 61.2021 475.319 61.8105 476.604 62.1318L477.76 62.4189C478.71 62.6514 479.065 62.9795 479.065 63.5947C479.065 64.3398 478.361 64.8389 477.295 64.8389C476.229 64.8389 475.531 64.3193 475.401 63.4785H474.499C474.615 64.7295 475.716 65.584 477.24 65.584C478.847 65.584 479.975 64.7295 479.975 63.5264C479.975 62.5078 479.441 61.9883 478.02 61.6328L476.967 61.3799C476.017 61.1475 475.6 60.792 475.6 60.2109C475.6 59.5 476.263 58.9873 477.233 58.9873C478.218 58.9873 478.867 59.5068 478.977 60.3477H479.845C479.756 59.0967 478.717 58.2422 477.261 58.2422C475.757 58.2422 474.704 59.083 474.704 60.2588ZM484.521 58.2422C483.365 58.2422 482.463 58.9189 482.073 59.8623H482.046V58.3584H481.191V67.8193H482.094V64.0049H482.121C482.497 64.9277 483.393 65.584 484.541 65.584C486.325 65.584 487.549 64.1279 487.549 61.9131C487.549 59.7051 486.318 58.2422 484.521 58.2422ZM484.363 64.7842C483.017 64.7842 482.094 63.6289 482.094 61.9131C482.094 60.2041 483.017 59.042 484.363 59.042C485.737 59.042 486.626 60.1836 486.626 61.9131C486.626 63.6494 485.737 64.7842 484.363 64.7842ZM488.827 65.4678H489.729V58.3584H488.827V65.4678ZM489.278 56.9229C489.613 56.9229 489.887 56.6562 489.887 56.3213C489.887 55.9932 489.613 55.7266 489.278 55.7266C488.95 55.7266 488.677 55.9932 488.677 56.3213C488.677 56.6562 488.95 56.9229 489.278 56.9229ZM491.35 65.4678H492.252V61.0381C492.252 59.8896 492.895 59.1035 493.906 59.1035C494.214 59.1035 494.467 59.1514 494.583 59.2061V58.3174C494.474 58.29 494.262 58.2422 494.022 58.2422C493.147 58.2422 492.484 58.7549 492.225 59.623H492.204V58.3584H491.35V65.4678ZM497.96 59.0352C499.245 59.0352 500.1 60.0127 500.12 61.4141H495.731C495.807 60.0127 496.688 59.0352 497.96 59.0352ZM500.065 63.4512C499.867 64.2305 499.122 64.791 498.049 64.791C496.634 64.791 495.725 63.793 495.725 62.1865V62.1318H501.05V61.749C501.05 59.6299 499.86 58.2422 497.974 58.2422C496.046 58.2422 494.795 59.7256 494.795 61.9336C494.795 64.1895 496.032 65.584 498.028 65.584C499.594 65.584 500.749 64.6816 500.961 63.4512H500.065ZM504.946 65.584C506.095 65.584 507.004 64.9209 507.407 63.9639H507.428V65.4678H508.289V55.6035H507.38V59.8213H507.359C506.983 58.8984 506.074 58.2422 504.926 58.2422C503.142 58.2422 501.904 59.6982 501.904 61.9131C501.904 64.1211 503.148 65.584 504.946 65.584ZM505.104 59.042C506.457 59.042 507.387 60.1973 507.387 61.9131C507.387 63.6357 506.457 64.7842 505.104 64.7842C503.736 64.7842 502.834 63.6494 502.834 61.9131C502.834 60.1768 503.736 59.042 505.104 59.042ZM516.205 65.584C517.996 65.584 519.213 64.1279 519.213 61.9131C519.213 59.6982 517.996 58.2422 516.212 58.2422C515.098 58.2422 514.182 58.8643 513.778 59.8418H513.758V55.6035H512.849V65.4678H513.717V63.9639H513.737C514.161 64.9619 515.07 65.584 516.205 65.584ZM516.034 59.042C517.401 59.042 518.283 60.1768 518.283 61.9131C518.283 63.6562 517.401 64.7842 516.034 64.7842C514.694 64.7842 513.751 63.6221 513.751 61.9131C513.751 60.2109 514.701 59.042 516.034 59.042ZM520.785 68.0381C521.954 68.0381 522.46 67.5732 523.082 65.8984L525.878 58.3584H524.928L522.761 64.5654H522.74L520.58 58.3584H519.609L522.275 65.5156L522.084 66.0488C521.77 66.9375 521.414 67.2656 520.765 67.2656C520.621 67.2656 520.443 67.252 520.334 67.2246V67.9971C520.437 68.0176 520.642 68.0381 520.785 68.0381ZM531.935 64.8047C530.971 64.8047 530.308 64.2715 530.308 63.499C530.308 62.7129 530.93 62.2275 532.051 62.1523L534.156 62.0088V62.7949C534.156 63.9229 533.179 64.8047 531.935 64.8047ZM531.75 65.584C532.81 65.584 533.78 64.9961 534.177 64.1143H534.197V65.4678H535.059V60.6006C535.059 59.1514 534.04 58.2422 532.42 58.2422C530.8 58.2422 529.754 59.1445 529.651 60.416H530.526C530.684 59.5547 531.354 59.042 532.399 59.042C533.507 59.042 534.156 59.6572 534.156 60.6826V61.2979L531.941 61.4346C530.301 61.5439 529.392 62.2822 529.392 63.499C529.392 64.7432 530.349 65.584 531.75 65.584ZM536.576 65.4678H537.479V61.2568C537.479 59.9375 538.306 59.0488 539.536 59.0488C540.726 59.0488 541.409 59.7598 541.409 61.0039V65.4678H542.312V60.8604C542.312 59.2471 541.354 58.2422 539.796 58.2422C538.647 58.2422 537.813 58.8096 537.451 59.6709H537.431V58.3584H536.576V65.4678ZM546.769 65.4678H547.671V58.3584H546.769V65.4678ZM547.22 56.9229C547.555 56.9229 547.828 56.6562 547.828 56.3213C547.828 55.9932 547.555 55.7266 547.22 55.7266C546.892 55.7266 546.618 55.9932 546.618 56.3213C546.618 56.6562 546.892 56.9229 547.22 56.9229ZM551.978 65.584C553.126 65.584 554.035 64.9209 554.438 63.9639H554.459V65.4678H555.32V55.6035H554.411V59.8213H554.391C554.015 58.8984 553.105 58.2422 551.957 58.2422C550.173 58.2422 548.936 59.6982 548.936 61.9131C548.936 64.1211 550.18 65.584 551.978 65.584ZM552.135 59.042C553.488 59.042 554.418 60.1973 554.418 61.9131C554.418 63.6357 553.488 64.7842 552.135 64.7842C550.768 64.7842 549.865 63.6494 549.865 61.9131C549.865 60.1768 550.768 59.042 552.135 59.042ZM559.757 59.0352C561.042 59.0352 561.896 60.0127 561.917 61.4141H557.528C557.604 60.0127 558.485 59.0352 559.757 59.0352ZM561.862 63.4512C561.664 64.2305 560.919 64.791 559.846 64.791C558.431 64.791 557.521 63.793 557.521 62.1865V62.1318H562.847V61.749C562.847 59.6299 561.657 58.2422 559.771 58.2422C557.843 58.2422 556.592 59.7256 556.592 61.9336C556.592 64.1895 557.829 65.584 559.825 65.584C561.391 65.584 562.546 64.6816 562.758 63.4512H561.862ZM566.347 64.8047C565.383 64.8047 564.72 64.2715 564.72 63.499C564.72 62.7129 565.342 62.2275 566.463 62.1523L568.568 62.0088V62.7949C568.568 63.9229 567.591 64.8047 566.347 64.8047ZM566.162 65.584C567.222 65.584 568.192 64.9961 568.589 64.1143H568.609V65.4678H569.471V60.6006C569.471 59.1514 568.452 58.2422 566.832 58.2422C565.212 58.2422 564.166 59.1445 564.063 60.416H564.938C565.096 59.5547 565.766 59.042 566.812 59.042C567.919 59.042 568.568 59.6572 568.568 60.6826V61.2979L566.354 61.4346C564.713 61.5439 563.804 62.2822 563.804 63.499C563.804 64.7432 564.761 65.584 566.162 65.584Z" fill="#ffffff"/>
<path d="M865.923 55.6035V65.4678H869.122C872.082 65.4678 873.798 63.6562 873.798 60.5322C873.798 57.415 872.075 55.6035 869.122 55.6035H865.923ZM866.859 56.4512H869.067C871.494 56.4512 872.848 57.9141 872.848 60.5391C872.848 63.1572 871.494 64.6201 869.067 64.6201H866.859V56.4512ZM877.988 65.584C879.923 65.584 881.229 64.1689 881.229 61.9131C881.229 59.6504 879.923 58.2422 877.988 58.2422C876.061 58.2422 874.748 59.6504 874.748 61.9131C874.748 64.1689 876.054 65.584 877.988 65.584ZM877.988 64.7842C876.594 64.7842 875.671 63.7178 875.671 61.9131C875.671 60.1084 876.594 59.042 877.988 59.042C879.383 59.042 880.312 60.1084 880.312 61.9131C880.312 63.7178 879.383 64.7842 877.988 64.7842ZM888.112 59.0352C889.397 59.0352 890.252 60.0127 890.272 61.4141H885.884C885.959 60.0127 886.841 59.0352 888.112 59.0352ZM890.218 63.4512C890.02 64.2305 889.274 64.791 888.201 64.791C886.786 64.791 885.877 63.793 885.877 62.1865V62.1318H891.202V61.749C891.202 59.6299 890.013 58.2422 888.126 58.2422C886.198 58.2422 884.947 59.7256 884.947 61.9336C884.947 64.1895 886.185 65.584 888.181 65.584C889.746 65.584 890.901 64.6816 891.113 63.4512H890.218ZM897.99 58.3584H897.047L894.88 64.5176H894.859L892.699 58.3584H891.742L894.388 65.4678H895.352L897.99 58.3584ZM901.538 59.0352C902.823 59.0352 903.678 60.0127 903.698 61.4141H899.31C899.385 60.0127 900.267 59.0352 901.538 59.0352ZM903.644 63.4512C903.445 64.2305 902.7 64.791 901.627 64.791C900.212 64.791 899.303 63.793 899.303 62.1865V62.1318H904.628V61.749C904.628 59.6299 903.438 58.2422 901.552 58.2422C899.624 58.2422 898.373 59.7256 898.373 61.9336C898.373 64.1895 899.61 65.584 901.606 65.584C903.172 65.584 904.327 64.6816 904.539 63.4512H903.644ZM905.838 65.4678H906.74V61.0381C906.74 59.8896 907.383 59.1035 908.395 59.1035C908.702 59.1035 908.955 59.1514 909.071 59.2061V58.3174C908.962 58.29 908.75 58.2422 908.511 58.2422C907.636 58.2422 906.973 58.7549 906.713 59.623H906.692V58.3584H905.838V65.4678ZM910.555 68.0381C911.724 68.0381 912.229 67.5732 912.852 65.8984L915.647 58.3584H914.697L912.53 64.5654H912.51L910.35 58.3584H909.379L912.045 65.5156L911.854 66.0488C911.539 66.9375 911.184 67.2656 910.534 67.2656C910.391 67.2656 910.213 67.252 910.104 67.2246V67.9971C910.206 68.0176 910.411 68.0381 910.555 68.0381ZM916.933 56.5811V58.3584H915.873V59.1104H916.933V63.7178C916.933 65.0029 917.411 65.5088 918.601 65.5088C918.792 65.5088 919.175 65.4883 919.271 65.4678V64.6953C919.216 64.709 918.874 64.7227 918.778 64.7227C918.122 64.7227 917.835 64.4082 917.835 63.6768V59.1104H919.236V58.3584H917.835V56.5811H916.933ZM920.583 65.4678H921.492V61.2842C921.492 59.9443 922.319 59.0488 923.598 59.0488C924.801 59.0488 925.491 59.7939 925.491 61.0244V65.4678H926.4V60.874C926.4 59.2812 925.416 58.2422 923.857 58.2422C922.723 58.2422 921.875 58.7959 921.513 59.6709H921.492V55.6035H920.583V65.4678ZM927.979 65.4678H928.882V58.3584H927.979V65.4678ZM928.431 56.9229C928.766 56.9229 929.039 56.6562 929.039 56.3213C929.039 55.9932 928.766 55.7266 928.431 55.7266C928.103 55.7266 927.829 55.9932 927.829 56.3213C927.829 56.6562 928.103 56.9229 928.431 56.9229ZM930.502 65.4678H931.404V61.2568C931.404 59.9375 932.231 59.0488 933.462 59.0488C934.651 59.0488 935.335 59.7598 935.335 61.0039V65.4678H936.237V60.8604C936.237 59.2471 935.28 58.2422 933.722 58.2422C932.573 58.2422 931.739 58.8096 931.377 59.6709H931.356V58.3584H930.502V65.4678ZM940.571 64.7363C939.231 64.7363 938.336 63.6152 938.336 61.8994C938.336 60.1699 939.231 59.042 940.571 59.042C941.938 59.042 942.861 60.1904 942.861 61.8926C942.861 63.5947 941.938 64.7363 940.571 64.7363ZM940.66 68.0996C942.561 68.0996 943.771 67.0059 943.771 65.3516V58.3584H942.909V59.8623H942.889C942.472 58.8916 941.562 58.2422 940.428 58.2422C938.609 58.2422 937.406 59.6846 937.406 61.8926C937.406 64.0938 938.609 65.5361 940.407 65.5361C941.542 65.5361 942.458 64.873 942.841 63.957H942.861V65.3857C942.861 66.5479 942.034 67.3203 940.701 67.3203C939.669 67.3203 938.91 66.8213 938.678 66.124H937.741C937.939 67.2451 939.108 68.0996 940.66 68.0996ZM948.569 65.4678H949.479V59.1104H951.003V58.3584H949.472V57.4766C949.472 56.6836 949.834 56.335 950.518 56.335C950.709 56.335 950.9 56.3555 951.044 56.3828V55.6377C950.894 55.6104 950.634 55.583 950.388 55.583C949.198 55.583 948.569 56.1709 948.569 57.4561V58.3584H947.578V59.1104H948.569V65.4678ZM954.66 65.584C956.595 65.584 957.9 64.1689 957.9 61.9131C957.9 59.6504 956.595 58.2422 954.66 58.2422C952.732 58.2422 951.42 59.6504 951.42 61.9131C951.42 64.1689 952.726 65.584 954.66 65.584ZM954.66 64.7842C953.266 64.7842 952.343 63.7178 952.343 61.9131C952.343 60.1084 953.266 59.042 954.66 59.042C956.055 59.042 956.984 60.1084 956.984 61.9131C956.984 63.7178 956.055 64.7842 954.66 64.7842ZM959.104 65.4678H960.006V61.0381C960.006 59.8896 960.648 59.1035 961.66 59.1035C961.968 59.1035 962.221 59.1514 962.337 59.2061V58.3174C962.228 58.29 962.016 58.2422 961.776 58.2422C960.901 58.2422 960.238 58.7549 959.979 59.623H959.958V58.3584H959.104V65.4678ZM966.691 68.0381C967.86 68.0381 968.366 67.5732 968.988 65.8984L971.784 58.3584H970.834L968.667 64.5654H968.646L966.486 58.3584H965.516L968.182 65.5156L967.99 66.0488C967.676 66.9375 967.32 67.2656 966.671 67.2656C966.527 67.2656 966.35 67.252 966.24 67.2246V67.9971C966.343 68.0176 966.548 68.0381 966.691 68.0381ZM975.414 65.584C977.349 65.584 978.654 64.1689 978.654 61.9131C978.654 59.6504 977.349 58.2422 975.414 58.2422C973.486 58.2422 972.174 59.6504 972.174 61.9131C972.174 64.1689 973.479 65.584 975.414 65.584ZM975.414 64.7842C974.02 64.7842 973.097 63.7178 973.097 61.9131C973.097 60.1084 974.02 59.042 975.414 59.042C976.809 59.042 977.738 60.1084 977.738 61.9131C977.738 63.7178 976.809 64.7842 975.414 64.7842ZM985.559 58.3584H984.656V62.5762C984.656 63.9092 983.822 64.7773 982.585 64.7773C981.396 64.7773 980.726 64.0801 980.726 62.8223V58.3584H979.816V62.9795C979.816 64.5791 980.78 65.584 982.325 65.584C983.453 65.584 984.308 65.0234 984.684 64.1484H984.704V65.4678H985.559V58.3584ZM987.117 65.4678H988.02V61.0381C988.02 59.8896 988.662 59.1035 989.674 59.1035C989.981 59.1035 990.234 59.1514 990.351 59.2061V58.3174C990.241 58.29 990.029 58.2422 989.79 58.2422C988.915 58.2422 988.252 58.7549 987.992 59.623H987.972V58.3584H987.117V65.4678ZM991.144 60.2588C991.144 61.2021 991.759 61.8105 993.044 62.1318L994.199 62.4189C995.149 62.6514 995.505 62.9795 995.505 63.5947C995.505 64.3398 994.801 64.8389 993.734 64.8389C992.668 64.8389 991.971 64.3193 991.841 63.4785H990.938C991.055 64.7295 992.155 65.584 993.68 65.584C995.286 65.584 996.414 64.7295 996.414 63.5264C996.414 62.5078 995.881 61.9883 994.459 61.6328L993.406 61.3799C992.456 61.1475 992.039 60.792 992.039 60.2109C992.039 59.5 992.702 58.9873 993.673 58.9873C994.657 58.9873 995.307 59.5068 995.416 60.3477H996.284C996.195 59.0967 995.156 58.2422 993.7 58.2422C992.196 58.2422 991.144 59.083 991.144 60.2588ZM1000.44 59.0352C1001.73 59.0352 1002.58 60.0127 1002.6 61.4141H998.212C998.287 60.0127 999.169 59.0352 1000.44 59.0352ZM1002.55 63.4512C1002.35 64.2305 1001.6 64.791 1000.53 64.791C999.114 64.791 998.205 63.793 998.205 62.1865V62.1318H1003.53V61.749C1003.53 59.6299 1002.34 58.2422 1000.45 58.2422C998.526 58.2422 997.275 59.7256 997.275 61.9336C997.275 64.1895 998.513 65.584 1000.51 65.584C1002.07 65.584 1003.23 64.6816 1003.44 63.4512H1002.55ZM1004.8 65.4678H1005.7V55.6035H1004.8V65.4678ZM1007.69 65.4678H1008.6V59.1104H1010.12V58.3584H1008.59V57.4766C1008.59 56.6836 1008.95 56.335 1009.63 56.335C1009.83 56.335 1010.02 56.3555 1010.16 56.3828V55.6377C1010.01 55.6104 1009.75 55.583 1009.5 55.583C1008.32 55.583 1007.69 56.1709 1007.69 57.4561V58.3584H1006.7V59.1104H1007.69V65.4678Z" fill="#ffffff"/>
<path d="M80.1924 104H82.1172V91.3174H80.1748L76.835 93.6904V95.624L80.1484 93.2686H80.1924V104Z" fill="#ffffff"/>
<path d="M504.879 95.5029V95.5205H506.742V95.4941C506.742 94.1758 507.788 93.1738 509.177 93.1738C510.495 93.1738 511.515 94.0703 511.515 95.1953C511.515 96.1885 511.11 96.8564 509.563 98.4648L504.984 103.132V104.468H513.659V102.807H507.639V102.763L510.812 99.5723C512.666 97.6738 513.457 96.5752 513.457 95.0986C513.457 93.0859 511.655 91.5479 509.238 91.5479C506.716 91.5479 504.879 93.2178 504.879 95.5029Z" fill="#ffffff"/>
<path d="M936.744 98.7285H938.326C939.996 98.7285 941.033 99.5723 941.033 100.943C941.033 102.183 939.926 103.062 938.379 103.062C936.779 103.062 935.777 102.227 935.654 101.014H933.765C933.888 103.202 935.646 104.705 938.379 104.705C941.024 104.705 943.037 103.185 943.037 100.97C943.037 99.1943 941.807 98.0254 939.899 97.8936V97.8584C941.473 97.5771 942.51 96.4434 942.51 94.8613C942.51 92.9102 940.761 91.5479 938.361 91.5479C935.848 91.5479 934.169 92.9805 934.02 95.2041H935.874C935.988 93.9561 936.902 93.165 938.273 93.165C939.776 93.165 940.585 93.9473 940.585 95.125C940.585 96.3203 939.645 97.1816 938.273 97.1816H936.744V98.7285Z" fill="#ffffff"/>
<circle cx="80" cy="98" r="13.5" stroke="#ffffff"/>
<circle cx="509" cy="98.4678" r="13.5" stroke="#ffffff"/>
<circle cx="938" cy="98.4678" r="13.5" stroke="#ffffff"/>
<path d="M93.5 98.9678H495.5" stroke="#ffffff"/>
<path d="M523 98.9678H925" stroke="#ffffff"/>
<path d="M79.5 111.968C205.236 188.806 385.949 221.127 499 108.968M937.5 84.4684L933.5 75.9678M937.5 84.4684L927 82.4678M937.5 84.4684C931.504 80.1247 925.004 75.024 919 70.9678M499 108.968L497 116.968M499 108.968L490.5 110.968M519.243 89.6015C526.007 83.4683 532.759 77.6825 539.5 72.2352M886 50.8344C782.042 -9.32727 676.669 -21.6063 568.5 50.8178" stroke="#ffffff"/>
</svg>
