<svg width="23" height="21" viewBox="0 0 23 21" fill="none" xmlns="http://www.w3.org/2000/svg">
<path d="M2.125 20.125C4.25 9.9375 9.9375 2.5 22.1875 2.125V3.0625C14.625 5.125 10.9375 10.4375 12.25 20.125H2.125Z" fill="black"/>
<path d="M13.125 17.4375L12.875 19.125L14.75 19.9375L14.8125 18.25L13.125 17.4375ZM1.5 12.6875L0.6875 14.9375L2.8125 15.5625L3.625 13.375L1.5 12.6875ZM5.875 5.9375L4.3125 7.625L6.25 9.0625L7.8125 7.1875L5.875 5.9375ZM11.625 1.8125L9.9375 3L11.25 4.5L13 3.375L11.625 1.8125ZM16.3125 1.1875L16.6875 2.3125L18.4375 1.875L18.0625 0.875L16.3125 1.1875ZM18.4375 5.5625L19.25 6.8125L20.25 5.875L19.8125 4.875L18.4375 5.5625ZM16 7.25L14.9375 8.375L16.375 10.0625L17.125 8.875L16 7.25ZM13.6875 12.125L13.1875 13.6875L15.125 14.8125L15.1875 13.125L13.6875 12.125Z" fill="black"/>
</svg>
