<svg width="32" height="32" viewBox="0 0 32 32" fill="none" xmlns="http://www.w3.org/2000/svg">
<path d="M31.9034 3.38698C31.774 3.17456 31.5333 3.0437 31.2727 3.04404L24.0145 3.04012L24.0042 3.03736L18.186 3.00133H18.1818C17.9249 3.001 17.6872 3.12844 17.5568 3.33627L15.997 5.80362L14.4417 3.36963C14.3119 3.16488 14.0775 3.03886 13.8238 3.03736L8.00561 3H7.99993C7.94951 3.00734 7.90014 3.01993 7.85265 3.03736H0.727186C0.325729 3.03728 0.0001776 3.34295 0 3.72009C0 3.84127 0.0342685 3.96028 0.0993431 4.06487L15.3721 28.6609C15.5742 28.9867 16.019 29.0969 16.3658 28.907C16.4743 28.8477 16.5646 28.7628 16.6278 28.6609L31.9006 4.07154C32.0321 3.86037 32.0332 3.59916 31.9034 3.38698ZM13.4048 4.40114L15.3764 7.48766C15.5075 7.69383 15.7444 7.82001 16 7.81993H16.0014C16.2576 7.81935 16.4944 7.69208 16.625 7.48499L18.5937 4.37045L22.7088 4.39581L18.3373 11.1159L16.0011 14.7065L9.29965 4.37445L13.4048 4.40114ZM16 26.9609L1.99281 4.40381H7.59226L15.3792 16.3749C15.4354 16.4527 15.5084 16.5187 15.5933 16.5684C15.6127 16.5812 15.6237 16.6035 15.6442 16.6144C15.9853 16.7943 16.4168 16.6885 16.6208 16.3749L24.4076 4.40656L30.0071 4.40932L16 26.9609Z" fill="black"/>
</svg>
